<?xml version="1.0" encoding="UTF-8"?>
<svg id="Layer_2" data-name="Layer 2" xmlns="http://www.w3.org/2000/svg" viewBox="0 0 211.31 57.62">
  <defs>
    <style>
      .cls-1 {
        fill: #fff;
      }
    </style>
  </defs>
  <g id="Layer_1-2" data-name="Layer 1">
    <g>
      <rect x=".5" y=".5" width="210.31" height="56.62"/>
      <path class="cls-1" d="m210.31,1v55.62H1V1h209.31m1-1H0v57.62h211.31V0h0Z"/>
    </g>
    <g>
      <path class="cls-1" d="m16.07,29.17l2.62-1.76v-.1l-2.62-1.76v-14.84h6.85v14.84l-2.62,1.76v.1l2.62,1.76v9.13h2.67v-8.56h6.85v14.27h-16.37v-14.84Z"/>
      <path class="cls-1" d="m35.24,42.54c-.98-.98-1.48-2.39-1.48-4.23v-9.13l2.62-1.76v-.1l-2.62-1.76v-3.43c0-1.87.49-3.29,1.48-4.26.98-.97,2.39-1.45,4.23-1.45h4.95c1.87,0,3.29.48,4.26,1.45.97.97,1.45,2.39,1.45,4.26v10.47h-6.85v-9.61c0-.89-.44-1.33-1.33-1.33s-1.33.44-1.33,1.33v4.38h6.9v5.23h-6.9v4.85c0,.89.44,1.33,1.33,1.33s1.33-.44,1.33-1.33v-2.47h6.85v3.33c0,1.84-.48,3.25-1.45,4.23-.97.98-2.39,1.47-4.26,1.47h-4.95c-1.84,0-3.25-.49-4.23-1.47Z"/>
      <path class="cls-1" d="m53.42,42.54c-.98-.98-1.48-2.39-1.48-4.23v-9.13l2.62-1.76v-.1l-2.62-1.76v-3.43c0-1.87.49-3.29,1.48-4.26.98-.97,2.39-1.45,4.23-1.45h7.23v5.23h-4.76c-.89,0-1.33.44-1.33,1.33v2.57l-2.62,1.76v.1l2.62,1.76v7.8c0,.89.44,1.33,1.33,1.33h2.19v1.47h-.9l-2.57,4.23h-1.19c-1.84,0-3.25-.49-4.23-1.47Zm10.66,1.47l-2.62-4.33v-10.51l2.62-1.76v-.1l-2.62-1.76v-9.13h6.85v9.13l-2.62,1.76v.1l2.62,1.76v14.84h-4.23Z"/>
      <path class="cls-1" d="m70.97,29.17l2.62-1.76v-.1l-2.62-1.76v-9.13h10.66c1.87,0,3.29.48,4.26,1.45.97.97,1.45,2.39,1.45,4.26v7.04l-3.14,3.33h-.57l-3.14-3.33v-6.18c0-.89-.45-1.33-1.33-1.33h-1.33v3.9l-2.62,1.76v.1l2.62,1.76v14.84h-6.85v-14.84Z"/>
      <path class="cls-1" d="m98.38,29.17l2.62-1.76v-.1l-2.62-1.76v-2.57c0-.89-.45-1.33-1.33-1.33h-1.33v3.9l-2.62,1.76v.1l2.62,1.76v14.84h-6.85v-14.84l2.62-1.76v-.1l-2.62-1.76v-9.13h10.66c1.87,0,3.29.48,4.26,1.45.97.97,1.45,2.39,1.45,4.26v3.43l-2.62,1.76v.1l2.62,1.76v14.84h-6.85v-14.84Z"/>
      <path class="cls-1" d="m124.26,29.17l2.62-1.76v-.1l-2.62-1.76v-2.57c0-.89-.45-1.33-1.33-1.33h-1.33v3.9l-2.62,1.76v.1l2.62,1.76v14.84h-6.85v-14.84l2.62-1.76v-.1l-2.62-1.76v-9.13h10.66c1.87,0,3.29.48,4.26,1.45.97.97,1.45,2.39,1.45,4.26v3.43l-2.62,1.76v.1l2.62,1.76v14.84h-6.85v-14.84Zm9.51,0l2.62-1.76v-.1l-2.62-1.76v-2.57c0-.89-.44-1.33-1.33-1.33h-1.33v3.9l-2.62,1.76v.1l2.62,1.76v14.84h-6.85v-14.84l2.62-1.76v-.1l-2.62-1.76v-9.13h10.66c1.87,0,3.29.48,4.26,1.45.97.97,1.45,2.39,1.45,4.26v3.43l-2.62,1.76v.1l2.62,1.76v14.84h-6.85v-14.84Z"/>
      <path class="cls-1" d="m144.19,42.54c-.98-.98-1.48-2.39-1.48-4.23v-9.13l2.62-1.76v-.1l-2.62-1.76v-3.43c0-1.87.49-3.29,1.48-4.26.98-.97,2.39-1.45,4.23-1.45h4.95c1.87,0,3.29.48,4.26,1.45.97.97,1.45,2.39,1.45,4.26v3.43l-2.62,1.76v.1l2.62,1.76v9.13c0,1.84-.48,3.25-1.45,4.23-.97.98-2.39,1.47-4.26,1.47h-4.95c-1.84,0-3.25-.49-4.23-1.47Zm8.04-5.09v-8.28l2.62-1.76v-.1l-2.62-1.76v-2.57c0-.89-.44-1.33-1.33-1.33s-1.33.44-1.33,1.33v2.57l-2.62,1.76v.1l2.62,1.76v8.28c0,.89.44,1.33,1.33,1.33s1.33-.44,1.33-1.33Z"/>
      <path class="cls-1" d="m161.36,29.17l2.62-1.76v-.1l-2.62-1.76v-9.13h10.66c1.87,0,3.29.48,4.26,1.45.97.97,1.45,2.39,1.45,4.26v7.04l-3.14,3.33h-.57l-3.14-3.33v-6.18c0-.89-.45-1.33-1.33-1.33h-1.33v3.9l-2.62,1.76v.1l2.62,1.76v14.84h-6.85v-14.84Z"/>
      <path class="cls-1" d="m180.35,42.54c-.98-.98-1.48-2.39-1.48-4.23v-9.13l2.62-1.76v-.1l-2.62-1.76v-3.43c0-1.87.49-3.29,1.48-4.26.98-.97,2.39-1.45,4.23-1.45h4.95c1.87,0,3.29.48,4.26,1.45.97.97,1.45,2.39,1.45,4.26v10.47h-6.85v-9.61c0-.89-.44-1.33-1.33-1.33s-1.33.44-1.33,1.33v4.38h6.9v5.23h-6.9v4.85c0,.89.44,1.33,1.33,1.33s1.33-.44,1.33-1.33v-2.47h6.85v3.33c0,1.84-.48,3.25-1.45,4.23-.97.98-2.39,1.47-4.26,1.47h-4.95c-1.84,0-3.25-.49-4.23-1.47Z"/>
    </g>
  </g>
</svg>