<?xml version="1.0" encoding="UTF-8"?>
<svg id="Layer_2" data-name="Layer 2" xmlns="http://www.w3.org/2000/svg" viewBox="0 0 211.31 57.62">
  <defs>
    <style>
      .cls-1 {
        fill: #fff;
      }
    </style>
  </defs>
  <g id="Layer_1-2" data-name="Layer 1">
    <g>
      <rect x=".5" y=".5" width="210.31" height="56.62"/>
      <path class="cls-1" d="m210.31,1v55.62H1V1h209.31m1-1H0v57.62h211.31V0h0Z"/>
    </g>
    <g>
      <path class="cls-1" d="m28.04,30.62l2.62-1.76v-.1l-2.62-1.76v-14.84h16.37v10.94h-6.85v-5.23h-2.67v9.13l-2.62,1.76v.1l2.62,1.76v9.13h2.67v-5.23h6.85v10.94h-16.37v-14.84Zm0,0l2.62-1.76v-.1l-2.62-1.76v-14.84h6.85v14.84l-2.62,1.76v.1l2.62,1.76v14.84h-6.85v-14.84Zm3.47-5.23h10.42v6.85h-10.42v-6.85Z"/>
      <path class="cls-1" d="m55.92,30.62l2.62-1.76v-.1l-2.62-1.76v-2.57c0-.89-.45-1.33-1.33-1.33h-1.33v3.9l-2.62,1.76v.1l2.62,1.76v14.84h-6.85v-14.84l2.62-1.76v-.1l-2.62-1.76v-9.13h10.66c1.87,0,3.29.48,4.26,1.45.97.97,1.45,2.39,1.45,4.26v3.43l-2.62,1.76v.1l2.62,1.76v14.84h-6.85v-14.84Z"/>
      <path class="cls-1" d="m63.43,17.87h13.99v5.23h-13.99v-5.23Zm3.85,26.12c-.98-.98-1.47-2.39-1.47-4.23v-9.13l2.62-1.76v-.1l-2.62-1.76v-14.84h6.85v14.84l-2.62,1.76v.1l2.62,1.76v8.28c0,.89.44,1.33,1.33,1.33h3.43v5.23h-5.9c-1.84,0-3.25-.49-4.23-1.47Z"/>
      <path class="cls-1" d="m79.66,43.99c-.98-.98-1.48-2.39-1.48-4.23v-9.13l2.62-1.76v-.1l-2.62-1.76v-3.43c0-1.87.49-3.29,1.48-4.26.98-.97,2.39-1.45,4.23-1.45h4.95c1.87,0,3.29.48,4.26,1.45.97.97,1.45,2.39,1.45,4.26v10.47h-6.85v-9.61c0-.89-.44-1.33-1.33-1.33s-1.33.44-1.33,1.33v4.38h6.9v5.23h-6.9v4.85c0,.89.44,1.33,1.33,1.33s1.33-.44,1.33-1.33v-2.47h6.85v3.33c0,1.84-.48,3.25-1.45,4.23-.97.98-2.39,1.47-4.26,1.47h-4.95c-1.84,0-3.25-.49-4.23-1.47Z"/>
      <path class="cls-1" d="m96.73,30.62l2.62-1.76v-.1l-2.62-1.76v-9.13h10.66c1.87,0,3.29.48,4.26,1.45.97.97,1.45,2.39,1.45,4.26v7.04l-3.14,3.33h-.57l-3.14-3.33v-6.18c0-.89-.45-1.33-1.33-1.33h-1.33v3.9l-2.62,1.76v.1l2.62,1.76v14.84h-6.85v-14.84Z"/>
      <path class="cls-1" d="m131.18,30.62l2.62-1.76v-.1l-2.62-1.76v-2.57c0-.89-.45-1.33-1.33-1.33h-1.33v3.9l-2.62,1.76v.1l2.62,1.76v14.84h-6.85v-14.84l2.62-1.76v-.1l-2.62-1.76v-9.13h10.66c1.87,0,3.29.48,4.26,1.45.97.97,1.45,2.39,1.45,4.26v3.43l-2.62,1.76v.1l2.62,1.76v14.84h-6.85v-14.84Z"/>
      <path class="cls-1" d="m141.6,43.99c-.98-.98-1.48-2.39-1.48-4.23v-9.13l2.62-1.76v-.1l-2.62-1.76v-3.43c0-1.87.49-3.29,1.48-4.26.98-.97,2.39-1.45,4.23-1.45h4.95c1.87,0,3.29.48,4.26,1.45.97.97,1.45,2.39,1.45,4.26v3.43l-2.62,1.76v.1l2.62,1.76v9.13c0,1.84-.48,3.25-1.45,4.23-.97.98-2.39,1.47-4.26,1.47h-4.95c-1.84,0-3.25-.49-4.23-1.47Zm8.04-5.09v-8.28l2.62-1.76v-.1l-2.62-1.76v-2.57c0-.89-.44-1.33-1.33-1.33s-1.33.44-1.33,1.33v2.57l-2.62,1.76v.1l2.62,1.76v8.28c0,.89.44,1.33,1.33,1.33s1.33-.44,1.33-1.33Z"/>
      <path class="cls-1" d="m158.77,30.62l2.9-1.76v-.1l-3.42-1.76-1.05-9.13h6.61l.52,8.66.38,10.32h.57l.76-10.32.76-8.66h7.04l.76,8.66.76,10.32h.57l.38-10.32.52-8.66h6.42l-1.05,9.13-3.42,1.76v.1l2.9,1.76-1.57,14.84h-8.18l-1.43-19.74h-.57l-1.43,19.74h-8.18l-1.57-14.84Z"/>
    </g>
  </g>
</svg>