<?xml version="1.0" encoding="utf-8"?>
<!-- Generator: Adobe Illustrator 27.2.0, SVG Export Plug-In . SVG Version: 6.00 Build 0)  -->
<svg version="1.1" id="Layer_1" xmlns="http://www.w3.org/2000/svg" xmlns:xlink="http://www.w3.org/1999/xlink" x="0px" y="0px"
	 viewBox="0 0 417.5 58.6" style="enable-background:new 0 0 417.5 58.6;" xml:space="preserve">
<style type="text/css">
	.st0{clip-path:url(#SVGID_00000041290999404397824730000006305412121780914607_);}
	.st1{fill:#EC71EA;}
	.st2{fill:#89F955;}
	.st3{fill:#FDF65B;}
	.st4{fill:#FFFFFF;}
</style>
<g>
	<g>
		<defs>
			<rect id="SVGID_1_" x="-82.6" y="538.2" width="1917.8" height="1021.5"/>
		</defs>
		<clipPath id="SVGID_00000168083379731772562880000000742762374476435383_">
			<use xlink:href="#SVGID_1_"  style="overflow:visible;"/>
		</clipPath>
		<g style="clip-path:url(#SVGID_00000168083379731772562880000000742762374476435383_);">
			<defs>
				
					<rect id="SVGID_00000089565496856897104420000016140559371706670759_" x="-644.9" y="445.3" transform="matrix(0.7716 -0.6361 0.6361 0.7716 -978.3706 775.3672)" width="2471" height="2609.7"/>
			</defs>
			<clipPath id="SVGID_00000008129475397725175270000013775261250337134513_">
				<use xlink:href="#SVGID_00000089565496856897104420000016140559371706670759_"  style="overflow:visible;"/>
			</clipPath>
		</g>
	</g>
</g>
<g>
	<rect x="0.5" y="1" width="210.3" height="56.6"/>
	<path class="st4" d="M210.3,1.5v55.6H1V1.5H210.3 M211.3,0.5H0v57.6h211.3V0.5L211.3,0.5z"/>
</g>
<g>
	<rect x="233.2" y="1" width="183.4" height="56.6"/>
	<path class="st4" d="M416,1.5v55.6H233.7V1.5H416 M417,0.5H232.7v57.6H417V0.5L417,0.5z"/>
</g>
<g>
	<path class="st4" d="M16.1,29.7l2.6-1.8v-0.1l-2.6-1.8V11.2h6.9v14.8l-2.6,1.8v0.1l2.6,1.8v9.1h2.7v-8.6h6.9v14.3H16.1V29.7z"/>
	<path class="st4" d="M35.2,43c-1-1-1.5-2.4-1.5-4.2v-9.1l2.6-1.8v-0.1l-2.6-1.8v-3.4c0-1.9,0.5-3.3,1.5-4.3c1-1,2.4-1.5,4.2-1.5
		h4.9c1.9,0,3.3,0.5,4.3,1.5c1,1,1.5,2.4,1.5,4.3v10.5h-6.9v-9.6c0-0.9-0.4-1.3-1.3-1.3c-0.9,0-1.3,0.4-1.3,1.3v4.4h6.9v5.2h-6.9
		v4.9c0,0.9,0.4,1.3,1.3,1.3c0.9,0,1.3-0.4,1.3-1.3v-2.5h6.9v3.3c0,1.8-0.5,3.3-1.5,4.2c-1,1-2.4,1.5-4.3,1.5h-4.9
		C37.6,44.5,36.2,44,35.2,43z"/>
	<path class="st4" d="M53.4,43c-1-1-1.5-2.4-1.5-4.2v-9.1l2.6-1.8v-0.1l-2.6-1.8v-3.4c0-1.9,0.5-3.3,1.5-4.3c1-1,2.4-1.5,4.2-1.5
		h7.2v5.2h-4.8c-0.9,0-1.3,0.4-1.3,1.3v2.6l-2.6,1.8v0.1l2.6,1.8v7.8c0,0.9,0.4,1.3,1.3,1.3h2.2v1.5h-0.9l-2.6,4.2h-1.2
		C55.8,44.5,54.4,44,53.4,43z M64.1,44.5l-2.6-4.3V29.7l2.6-1.8v-0.1l-2.6-1.8v-9.1h6.9v9.1l-2.6,1.8v0.1l2.6,1.8v14.8H64.1z"/>
	<path class="st4" d="M71,29.7l2.6-1.8v-0.1L71,26.1v-9.1h10.7c1.9,0,3.3,0.5,4.3,1.5c1,1,1.5,2.4,1.5,4.3v7L84.2,33h-0.6l-3.1-3.3
		v-6.2c0-0.9-0.4-1.3-1.3-1.3h-1.3v3.9l-2.6,1.8v0.1l2.6,1.8v14.8H71V29.7z"/>
	<path class="st4" d="M98.4,29.7l2.6-1.8v-0.1l-2.6-1.8v-2.6c0-0.9-0.4-1.3-1.3-1.3h-1.3v3.9l-2.6,1.8v0.1l2.6,1.8v14.8h-6.9V29.7
		l2.6-1.8v-0.1l-2.6-1.8v-9.1h10.7c1.9,0,3.3,0.5,4.3,1.5c1,1,1.5,2.4,1.5,4.3v3.4l-2.6,1.8v0.1l2.6,1.8v14.8h-6.9V29.7z"/>
	<path class="st4" d="M124.3,29.7l2.6-1.8v-0.1l-2.6-1.8v-2.6c0-0.9-0.4-1.3-1.3-1.3h-1.3v3.9l-2.6,1.8v0.1l2.6,1.8v14.8h-6.9V29.7
		l2.6-1.8v-0.1l-2.6-1.8v-9.1h10.7c1.9,0,3.3,0.5,4.3,1.5c1,1,1.5,2.4,1.5,4.3v3.4l-2.6,1.8v0.1l2.6,1.8v14.8h-6.9V29.7z
		 M133.8,29.7l2.6-1.8v-0.1l-2.6-1.8v-2.6c0-0.9-0.4-1.3-1.3-1.3h-1.3v3.9l-2.6,1.8v0.1l2.6,1.8v14.8h-6.9V29.7l2.6-1.8v-0.1
		l-2.6-1.8v-9.1h10.7c1.9,0,3.3,0.5,4.3,1.5c1,1,1.5,2.4,1.5,4.3v3.4l-2.6,1.8v0.1l2.6,1.8v14.8h-6.9V29.7z"/>
	<path class="st4" d="M144.2,43c-1-1-1.5-2.4-1.5-4.2v-9.1l2.6-1.8v-0.1l-2.6-1.8v-3.4c0-1.9,0.5-3.3,1.5-4.3c1-1,2.4-1.5,4.2-1.5
		h4.9c1.9,0,3.3,0.5,4.3,1.5c1,1,1.5,2.4,1.5,4.3v3.4l-2.6,1.8v0.1l2.6,1.8v9.1c0,1.8-0.5,3.3-1.5,4.2c-1,1-2.4,1.5-4.3,1.5h-4.9
		C146.6,44.5,145.2,44,144.2,43z M152.2,37.9v-8.3l2.6-1.8v-0.1l-2.6-1.8v-2.6c0-0.9-0.4-1.3-1.3-1.3c-0.9,0-1.3,0.4-1.3,1.3v2.6
		l-2.6,1.8v0.1l2.6,1.8v8.3c0,0.9,0.4,1.3,1.3,1.3C151.8,39.3,152.2,38.8,152.2,37.9z"/>
	<path class="st4" d="M161.4,29.7l2.6-1.8v-0.1l-2.6-1.8v-9.1H172c1.9,0,3.3,0.5,4.3,1.5c1,1,1.5,2.4,1.5,4.3v7l-3.1,3.3H174
		l-3.1-3.3v-6.2c0-0.9-0.4-1.3-1.3-1.3h-1.3v3.9l-2.6,1.8v0.1l2.6,1.8v14.8h-6.9V29.7z"/>
	<path class="st4" d="M180.3,43c-1-1-1.5-2.4-1.5-4.2v-9.1l2.6-1.8v-0.1l-2.6-1.8v-3.4c0-1.9,0.5-3.3,1.5-4.3c1-1,2.4-1.5,4.2-1.5
		h4.9c1.9,0,3.3,0.5,4.3,1.5c1,1,1.5,2.4,1.5,4.3v10.5h-6.9v-9.6c0-0.9-0.4-1.3-1.3-1.3c-0.9,0-1.3,0.4-1.3,1.3v4.4h6.9v5.2h-6.9
		v4.9c0,0.9,0.4,1.3,1.3,1.3c0.9,0,1.3-0.4,1.3-1.3v-2.5h6.9v3.3c0,1.8-0.5,3.3-1.5,4.2c-1,1-2.4,1.5-4.3,1.5h-4.9
		C182.7,44.5,181.3,44,180.3,43z"/>
</g>
<g>
	<path class="st4" d="M247.2,29.7l2.6-1.8v-0.1l-2.6-1.8V11.2h16.4v10.9h-6.9v-5.2h-2.7V26l-2.6,1.8v0.1l2.6,1.8v9.1h2.7v-5.2h6.9
		v10.9h-16.4V29.7z M247.2,29.7l2.6-1.8v-0.1l-2.6-1.8V11.2h6.9V26l-2.6,1.8v0.1l2.6,1.8v14.8h-6.9V29.7z M250.7,24.4h10.4v6.9
		h-10.4V24.4z"/>
	<path class="st4" d="M275.1,29.7l2.6-1.8v-0.1l-2.6-1.8v-2.6c0-0.9-0.4-1.3-1.3-1.3h-1.3V26l-2.6,1.8v0.1l2.6,1.8v14.8h-6.9V29.7
		l2.6-1.8v-0.1l-2.6-1.8v-9.1h10.7c1.9,0,3.3,0.5,4.3,1.5c1,1,1.5,2.4,1.5,4.3V26l-2.6,1.8v0.1l2.6,1.8v14.8h-6.9V29.7z"/>
	<path class="st4" d="M282.6,16.9h14v5.2h-14V16.9z M286.5,43c-1-1-1.5-2.4-1.5-4.2v-9.1l2.6-1.8v-0.1L285,26V11.2h6.9V26l-2.6,1.8
		v0.1l2.6,1.8v8.3c0,0.9,0.4,1.3,1.3,1.3h3.4v5.2h-5.9C288.9,44.5,287.5,44,286.5,43z"/>
	<path class="st4" d="M298.8,43c-1-1-1.5-2.4-1.5-4.2v-9.1l2.6-1.8v-0.1l-2.6-1.8v-3.4c0-1.9,0.5-3.3,1.5-4.3c1-1,2.4-1.5,4.2-1.5
		h4.9c1.9,0,3.3,0.5,4.3,1.5c1,1,1.5,2.4,1.5,4.3v10.5h-6.9v-9.6c0-0.9-0.4-1.3-1.3-1.3c-0.9,0-1.3,0.4-1.3,1.3v4.4h6.9v5.2h-6.9
		v4.9c0,0.9,0.4,1.3,1.3,1.3c0.9,0,1.3-0.4,1.3-1.3v-2.5h6.9v3.3c0,1.8-0.5,3.3-1.5,4.2c-1,1-2.4,1.5-4.3,1.5h-4.9
		C301.2,44.5,299.8,44,298.8,43z"/>
	<path class="st4" d="M315.9,29.7l2.6-1.8v-0.1l-2.6-1.8v-9.1h10.7c1.9,0,3.3,0.5,4.3,1.5c1,1,1.5,2.4,1.5,4.3v7l-3.1,3.3h-0.6
		l-3.1-3.3v-6.2c0-0.9-0.4-1.3-1.3-1.3h-1.3V26l-2.6,1.8v0.1l2.6,1.8v14.8h-6.9V29.7z"/>
	<path class="st4" d="M350.4,29.7l2.6-1.8v-0.1l-2.6-1.8v-2.6c0-0.9-0.4-1.3-1.3-1.3h-1.3V26l-2.6,1.8v0.1l2.6,1.8v14.8h-6.9V29.7
		l2.6-1.8v-0.1l-2.6-1.8v-9.1h10.7c1.9,0,3.3,0.5,4.3,1.5c1,1,1.5,2.4,1.5,4.3V26l-2.6,1.8v0.1l2.6,1.8v14.8h-6.9V29.7z"/>
	<path class="st4" d="M360.8,43c-1-1-1.5-2.4-1.5-4.2v-9.1l2.6-1.8v-0.1l-2.6-1.8v-3.4c0-1.9,0.5-3.3,1.5-4.3c1-1,2.4-1.5,4.2-1.5
		h4.9c1.9,0,3.3,0.5,4.3,1.5c1,1,1.5,2.4,1.5,4.3V26l-2.6,1.8v0.1l2.6,1.8v9.1c0,1.8-0.5,3.3-1.5,4.2c-1,1-2.4,1.5-4.3,1.5H365
		C363.2,44.5,361.8,44,360.8,43z M368.8,37.9v-8.3l2.6-1.8v-0.1l-2.6-1.8v-2.6c0-0.9-0.4-1.3-1.3-1.3c-0.9,0-1.3,0.4-1.3,1.3V26
		l-2.6,1.8v0.1l2.6,1.8v8.3c0,0.9,0.4,1.3,1.3,1.3C368.4,39.3,368.8,38.8,368.8,37.9z"/>
	<path class="st4" d="M378,29.7l2.9-1.8v-0.1l-3.4-1.8l-1-9.1h6.6l0.5,8.7l0.4,10.3h0.6l0.8-10.3l0.8-8.7h7l0.8,8.7l0.8,10.3h0.6
		l0.4-10.3l0.5-8.7h6.4l-1,9.1l-3.4,1.8v0.1l2.9,1.8l-1.6,14.8h-8.2l-1.4-19.7h-0.6l-1.4,19.7h-8.2L378,29.7z"/>
</g>
</svg>
