<?xml version="1.0" encoding="utf-8"?>
<!-- Generator: Adobe Illustrator 27.2.0, SVG Export Plug-In . SVG Version: 6.00 Build 0)  -->
<svg version="1.1" id="Layer_1" xmlns="http://www.w3.org/2000/svg" xmlns:xlink="http://www.w3.org/1999/xlink" x="0px" y="0px"
	 viewBox="0 0 30 30" style="enable-background:new 0 0 30 30;" xml:space="preserve">
<style type="text/css">
	.st0{fill:#FFFFFF;}
</style>
<path class="st0" d="M17.73,0h-4.46C9.93,0,8.13,1.8,8.13,5.14v8.08L9.59,15l-1.46,1.78v8.08c0,3.34,1.8,5.14,5.14,5.14h4.46
	c3.34,0,5.14-1.8,5.14-5.14v-6.47H16.7v5.27c0,0.77-0.43,1.2-1.2,1.2c-0.77,0-1.2-0.43-1.2-1.2v-6.88L12.82,15l1.48-1.78V6.34
	c0-0.77,0.43-1.2,1.2-1.2c0.77,0,1.2,0.43,1.2,1.2v5.27h6.17V5.14C22.87,1.8,21.07,0,17.73,0z"/>
</svg>
