<?xml version="1.0" encoding="UTF-8"?><svg id="Layer_2" xmlns="http://www.w3.org/2000/svg" viewBox="0 0 2848.38 2848.38"><defs><style>.cls-1{fill:#fff;}</style></defs><g id="Layer_1-2"><circle cx="1424.19" cy="1424.19" r="1411.49"/><path class="cls-1" d="m1424.19,2848.38c-192.26,0-378.77-37.66-554.36-111.93-84.39-35.69-165.79-79.87-241.92-131.31-75.41-50.95-146.32-109.45-210.77-173.9-64.44-64.44-122.95-135.36-173.9-210.77-51.44-76.14-95.62-157.53-131.31-241.92C37.66,1802.97,0,1616.45,0,1424.19s37.66-378.77,111.93-554.36c35.69-84.39,79.87-165.79,131.31-241.92,50.95-75.41,109.45-146.32,173.9-210.77,64.44-64.44,135.36-122.95,210.77-173.9,76.14-51.44,157.53-95.62,241.92-131.31C1045.42,37.66,1231.93,0,1424.19,0s378.77,37.66,554.36,111.93c84.39,35.69,165.79,79.87,241.92,131.31,75.41,50.95,146.32,109.45,210.77,173.9,64.44,64.44,122.95,135.36,173.9,210.77,51.44,76.14,95.62,157.53,131.31,241.92,74.27,175.59,111.93,362.1,111.93,554.36s-37.66,378.77-111.93,554.36c-35.69,84.39-79.87,165.79-131.31,241.92-50.95,75.41-109.45,146.32-173.9,210.77-64.44,64.44-135.36,122.95-210.77,173.9-76.14,51.44-157.53,95.62-241.92,131.31-175.59,74.27-362.1,111.93-554.36,111.93Zm0-2822.98c-188.84,0-372.02,36.98-544.47,109.92-82.88,35.06-162.82,78.45-237.6,128.96-74.07,50.04-143.72,107.51-207.02,170.81-63.3,63.3-120.77,132.95-170.81,207.02-50.52,74.78-93.91,154.72-128.96,237.6-72.94,172.44-109.92,355.63-109.92,544.47s36.98,372.03,109.92,544.47c35.06,82.88,78.45,162.82,128.96,237.6,50.04,74.07,107.51,143.72,170.81,207.03,63.3,63.3,132.95,120.77,207.02,170.81,74.78,50.52,154.72,93.91,237.6,128.96,172.44,72.94,355.63,109.92,544.47,109.92s372.02-36.98,544.47-109.92c82.88-35.06,162.82-78.45,237.6-128.96,74.07-50.04,143.72-107.51,207.03-170.81,63.3-63.3,120.77-132.95,170.81-207.03,50.52-74.78,93.91-154.72,128.97-237.6,72.94-172.44,109.92-355.63,109.92-544.47s-36.98-372.02-109.92-544.47c-35.06-82.88-78.45-162.82-128.97-237.6-50.04-74.07-107.51-143.72-170.81-207.02-63.3-63.3-132.95-120.77-207.03-170.81-74.78-50.52-154.72-93.91-237.6-128.96-172.44-72.94-355.63-109.92-544.47-109.92Z"/><path class="cls-1" d="m1778.84,772.23h-167.6c-6.41-35.81-13.48-69.72-21.08-100.95-3.58-14.73-18.42-23.76-33.15-20.18s-23.76,18.42-20.18,33.15c6.65,27.33,12.89,56.84,18.63,87.98h-484.7c-89.56,0-162.43,72.87-162.43,162.43v196.88c-36.53,6.09-71.3,12.86-103.48,20.16-14.78,3.36-24.04,18.06-20.69,32.84,2.89,12.74,14.21,21.37,26.74,21.37,2.01,0,4.06-.22,6.1-.69,28.5-6.47,59.14-12.51,91.33-18.02v455.54c0,89.56,72.87,162.43,162.43,162.43h708.08c89.56,0,162.43-72.87,162.43-162.43v-708.08c0-89.56-72.87-162.43-162.43-162.43Zm115.39,351.99c-35.24-5.11-72.25-9.68-110.13-13.58-15.08-1.55-28.56,9.41-30.11,24.49-1.55,15.08,9.41,28.56,24.49,30.11,38.69,3.98,76.46,8.67,112.23,13.93,1.18.17,2.35.26,3.52.28v463.29c0,30.67-12.05,59.6-33.92,81.47-21.87,21.87-50.8,33.92-81.47,33.92h-152.72c4.68-34.66,8.84-70.89,12.37-107.86,1.44-15.09-9.62-28.49-24.71-29.93-15.09-1.44-28.49,9.62-29.93,24.71-3.69,38.63-8.07,76.45-13.03,112.39-.03.23-.05.46-.08.69h-499.99c-30.67,0-59.6-12.04-81.47-33.92-21.87-21.87-33.91-50.8-33.91-81.47v-708.08c0-30.67,12.04-59.6,33.91-81.47,21.87-21.87,50.8-33.91,81.47-33.91h708.08c30.67,0,59.6,12.04,81.47,33.91,21.87,21.87,33.92,50.8,33.92,81.47v189.56Z"/><path class="cls-1" d="m1429.47,2159.84c-1.59.36-3.12.54-4.67.54-14.9,0-33.75-18.1-51.74-49.67-7.5-13.17-24.26-17.76-37.43-10.26-13.17,7.5-17.76,24.26-10.26,37.43,29.26,51.35,62.71,77.38,99.43,77.38,5.64,0,11.33-.65,16.9-1.92,14.77-3.38,24.01-18.09,20.64-32.87-3.38-14.77-18.09-24.01-32.87-20.64Z"/><path class="cls-1" d="m1548.84,2004.29c-14.39-4.74-29.91,3.08-34.65,17.47-13.57,41.18-28.11,74.24-43.22,98.26-8.07,12.83-4.21,29.77,8.62,37.84,4.54,2.85,9.59,4.22,14.58,4.22,9.12,0,18.04-4.55,23.26-12.84,17.47-27.79,33.92-64.9,48.88-110.3,4.74-14.39-3.08-29.91-17.47-34.65Z"/><path class="cls-1" d="m1590.34,1813.86c-14.93-2.61-29.15,7.38-31.75,22.31-6.88,39.37-14.58,76.38-22.89,110.02-3.64,14.71,5.35,29.59,20.06,33.22,2.21.55,4.42.81,6.6.81,12.32,0,23.53-8.36,26.62-20.87,8.61-34.87,16.58-73.13,23.67-113.74,2.61-14.93-7.38-29.15-22.31-31.75Z"/><path class="cls-1" d="m1337.73,520.82c4.39,2.6,9.21,3.84,13.96,3.84,9.38,0,18.51-4.81,23.63-13.46,17.23-29.09,35.27-45.77,49.47-45.77,2.25,0,4.5.38,6.86,1.15,14.4,4.72,29.9-3.13,34.62-17.53,4.72-14.4-3.13-29.9-17.53-34.62-7.86-2.57-15.92-3.88-23.96-3.88-35.58,0-68.11,24.45-96.69,72.67-7.73,13.04-3.42,29.87,9.62,37.6Z"/><path class="cls-1" d="m1279.15,706.54c2.17.52,4.33.77,6.46.77,12.38,0,23.62-8.44,26.65-21.01,9.69-40.1,20.3-75.91,31.56-106.42,5.24-14.22-2.03-30-16.25-35.24-14.22-5.25-30,2.03-35.24,16.25-11.99,32.51-23.23,70.37-33.42,112.53-3.56,14.73,5.5,29.56,20.23,33.12Z"/><path class="cls-1" d="m1342.19,2041.43c-8.19-22.71-16.04-48.26-23.42-76.21l77.91,48.76-17.74-76.99-111.56-69.77-69.77,111.56,17.74,76.99,49.61-79.38c8.01,30.63,16.59,58.68,25.61,83.67,4.03,11.18,14.58,18.14,25.81,18.14,3.09,0,6.24-.53,9.31-1.64,14.26-5.14,21.64-20.87,16.5-35.13Z"/><path class="cls-1" d="m1584.31,985.58c1.33,14.22,13.29,24.88,27.29,24.88.86,0,1.73-.04,2.6-.12,15.09-1.42,26.17-14.8,24.76-29.89-3.7-39.37-8.1-77.95-13.09-114.68-2.04-15.02-15.87-25.54-30.88-23.5-15.02,2.04-25.54,15.87-23.5,30.88,4.88,35.98,9.2,73.8,12.83,112.42Z"/><path class="cls-1" d="m1515.65,608.53c3.75,11.62,14.52,19.01,26.11,19.01,2.8,0,5.64-.43,8.44-1.34,14.42-4.66,22.33-20.13,17.67-34.55-14.58-45.12-30.61-82.3-47.63-110.51-7.83-12.98-24.7-17.15-37.67-9.32-12.98,7.83-17.15,24.7-9.32,37.67,14.84,24.6,29.11,57.92,42.4,99.04Z"/><path class="cls-1" d="m1624.9,1425.71c-15.15-.56-27.88,11.26-28.44,26.4-1.42,38.19-3.45,76.29-6.03,113.23-1.06,15.12,10.34,28.23,25.46,29.29.65.05,1.3.07,1.94.07,14.28,0,26.34-11.06,27.35-25.53,2.62-37.53,4.68-76.23,6.13-115.02.56-15.14-11.26-27.88-26.4-28.44Z"/><path class="cls-1" d="m1625.68,1230.77c-15.15.22-27.26,12.68-27.05,27.83.25,17.96.38,36.23.38,54.31,0,19.69-.15,39.59-.46,59.15-.24,15.15,11.86,27.63,27.01,27.86.15,0,.29,0,.43,0,14.96,0,27.2-12.01,27.43-27.02.31-19.84.46-40.03.46-60,0-18.34-.13-36.87-.39-55.09-.22-15.15-12.67-27.28-27.83-27.05Z"/><path class="cls-1" d="m2150.59,1463.75c14.4-4.74,22.22-20.25,17.48-34.65-4.74-14.4-20.25-22.22-34.65-17.48-7.97,2.62-16.28,5.21-24.86,7.76l46.74-78.94-76.53,19.63-67.01,113.24,113.24,67.01,76.53-19.63-80.69-47.72c10.29-3.02,20.23-6.1,29.75-9.23Z"/><path class="cls-1" d="m2085.85,1217.49c12.14,0,23.24-8.12,26.5-20.4,3.89-14.65-4.83-29.68-19.48-33.57-34.52-9.17-72.73-17.67-113.57-25.28-14.9-2.78-29.23,7.05-32,21.95-2.78,14.9,7.05,29.23,21.95,32,39.49,7.35,76.34,15.55,109.53,24.37,2.36.63,4.73.93,7.06.93Z"/><path class="cls-1" d="m2153.58,1239.64c41.5,14.99,73.08,30.87,93.88,47.2,5.03,3.95,11,5.86,16.93,5.86,8.13,0,16.19-3.6,21.6-10.5,9.36-11.92,7.28-29.17-4.64-38.53-25.4-19.94-62.12-38.67-109.12-55.65-14.25-5.15-29.98,2.23-35.13,16.49-5.15,14.25,2.23,29.98,16.49,35.13Z"/><path class="cls-1" d="m606.96,1361.1c-19.11-13.85-29.63-27.69-29.63-38.95,0-5.58,2.37-11.47,7.24-18,9.06-12.15,6.56-29.34-5.59-38.4-12.15-9.06-29.34-6.56-38.4,5.59-12.03,16.13-18.13,33.23-18.13,50.81,0,30.17,17.6,58.22,52.3,83.38,4.87,3.53,10.5,5.23,16.08,5.23,8.5,0,16.87-3.93,22.24-11.34,8.9-12.27,6.16-29.43-6.11-38.32Z"/><path class="cls-1" d="m2304.59,1306.15c-14.78-3.37-29.49,5.88-32.85,20.66-1.83,8.01-12,29.56-66.92,56.46-13.61,6.67-19.24,23.11-12.57,36.72,4.76,9.73,14.52,15.38,24.66,15.38,4.05,0,8.17-.9,12.05-2.8,56.78-27.82,88.28-58.42,96.28-93.55,3.37-14.78-5.88-29.49-20.66-32.85Z"/><path class="cls-1" d="m777.49,1429.5c-40.32-10.46-75.69-21.87-105.14-33.92-14.03-5.74-30.05.98-35.79,15s.98,30.05,15,35.79c31.72,12.98,69.46,25.18,112.15,36.25,2.31.6,4.63.89,6.91.89,12.2,0,23.34-8.2,26.54-20.56,3.8-14.67-5-29.65-19.67-33.45Z"/><path class="cls-1" d="m1506.8,1093.92c-27.07-.58-54.66-.87-82-.87-11,0-22.13.05-33.09.14-15.16.13-27.34,12.52-27.21,27.67.13,15.15,12.51,27.35,27.67,27.21,10.78-.09,21.72-.14,32.54-.14,26.95.05,54.2.29,80.92.86.2,0,.4,0,.6,0,14.88,0,27.11-11.9,27.42-26.86.32-15.15-11.7-27.7-26.85-28.02Z"/><path class="cls-1" d="m740.67,1225.03c14.53-4.32,22.8-19.6,18.48-34.13s-19.6-22.8-34.13-18.48c-44.04,13.1-81.48,27.49-111.26,42.77-13.48,6.92-18.81,23.46-11.89,36.94,4.86,9.48,14.47,14.92,24.44,14.92,4.22,0,8.5-.98,12.51-3.03,26.78-13.74,61.04-26.86,101.85-38.99Z"/><path class="cls-1" d="m1310.46,1094.75c-38.72,1.16-77.43,2.92-115.04,5.25-15.13.94-26.63,13.96-25.69,29.09.9,14.55,12.98,25.75,27.36,25.75.57,0,1.15-.02,1.72-.05,37.03-2.29,75.15-4.04,113.29-5.17,15.15-.45,27.06-13.1,26.61-28.25-.45-15.15-13.1-27.07-28.25-26.61Z"/><path class="cls-1" d="m1703.03,1103.38c-18.13-1.39-36.54-2.64-55.12-3.76-.73-12.79-1.52-25.5-2.38-38.07-1.03-15.12-14.13-26.54-29.25-25.5-15.12,1.03-26.54,14.13-25.5,29.25.71,10.4,1.37,20.89,2,31.44-1.58-.07-3.15-.15-4.73-.21-15.14-.66-27.95,11.09-28.6,26.23-.65,15.14,11.09,27.95,26.23,28.6,3.31.14,6.61.3,9.91.45.39,8.9.74,17.81,1.06,26.73.53,14.81,12.7,26.46,27.41,26.46.33,0,.67,0,1-.02,15.15-.54,26.98-13.26,26.44-28.41-.26-7.27-.55-14.54-.85-21.8,16.23,1,32.33,2.11,48.2,3.33.71.05,1.42.08,2.13.08,14.2,0,26.23-10.95,27.33-25.35,1.16-15.11-10.15-28.3-25.27-29.46Z"/><path class="cls-1" d="m1114.29,1106.02c-39.29,3.41-77.89,7.51-114.73,12.19-15.03,1.91-25.67,15.65-23.76,30.68,1.76,13.86,13.57,23.99,27.19,23.99,1.15,0,2.32-.07,3.49-.22,36.13-4.59,74-8.61,112.56-11.96,15.1-1.31,26.28-14.61,24.97-29.71-1.31-15.1-14.61-26.28-29.71-24.97Z"/><path class="cls-1" d="m577.49,2050.91l37.59,43.27c28.99,33.37,26.31,58.51,6.33,75.87-12.81,11.12-33.48,17.51-58.05-.98,12.78,22.94,3.96,50.01-25.48,80.01-3.91,3.73-6.07,5.95-6.67,6.82l-17.7-20.37c.78-.67,2.74-2.72,5.85-5.42,28.63-28.96,34.98-51.83,15.59-74.14l-16.85-19.4-51.61,44.83-16.85-19.4,127.86-111.07Zm-26.42,93.42c19.05,21.92,37.07,19.55,50.26,8.08,13-11.29,15.22-24.8-4.83-47.89l-17.87-20.57-45.59,39.61,18.03,20.76Z"/><path class="cls-1" d="m602.41,2236.46c25.07-28.6,61.8-35.03,91.76-8.77,29.57,25.92,28.53,59.86,2.27,89.82-25.75,29.38-62.89,35.1-91.88,9.69-30.15-26.43-28.91-60.2-2.15-90.74Zm73.78,63.99c18.63-21.26,21.92-43.33,4.72-58.41-17.59-15.42-39.59-9.41-58.06,11.65-18.8,21.45-22.23,44.08-5.03,59.16,17.2,15.08,39.4,9.25,58.37-12.4Z"/><path class="cls-1" d="m750.05,2278.59l18.05,12.75,18.38-26.03,24.76,4.59-18.98,26.87-6.32,7.17,27.29,19.27-12.01,17-27.29-19.27-4.79,8.57-33.51,47.44c-9.49,13.44-8.69,18.09,2.65,26.1,5.46,3.85,11.24,6.36,17.67,8.39l-11.12,15.75c-7.87-1.78-17.81-5.97-25.79-11.6-19.1-13.49-21.39-26.74-5.37-49.42l41.36-58.57-17-12.01,12.01-17Z"/><path class="cls-1" d="m850.07,2461.04c-13.76,12.89-34.37,15.43-51.93,5.23-21.71-12.25-26.16-31.57-16.06-49.48,11.97-20.69,32.56-20.59,58.37-11.93,24.24,7.77,34.36,10.23,37.21,6.23l1.01-1.79c7.7-13.66,4.8-24.73-10.87-33.57-13.66-7.7-28.6-5.8-38.25.85l-12.19-18.68c16.55-11.03,40.46-10.52,62.4,1.85,28.21,15.91,34.74,37.29,19.71,63.93l-20.83,36.94c-13.13,23.28-16,34.65-14.44,40.25l-22.61-12.75c-1.04-4.43,1.36-13.4,8.49-27.08Zm8.64-16.37l12.63-22.39c-4.26,2.32-13.41,1.29-23.85-1.65-21.33-6.13-34.71-5.42-41.53,6.67-6.19,10.97-1.51,20.98,7.89,26.29,15.45,8.71,34.27,5.16,44.87-8.92Z"/><path class="cls-1" d="m941.9,2396.23l20.25,8.85,12.76-29.2,25.18-.49-13.18,30.14-4.75,8.3,30.61,13.38-8.34,19.07-30.61-13.38-2.97,9.36-23.26,53.22c-6.59,15.07-4.86,19.47,7.85,25.03,6.12,2.68,12.29,3.97,19,4.66l-7.72,17.66c-8.06-.16-18.65-2.26-27.59-6.17-21.43-9.37-26.33-21.89-15.22-47.32l28.72-65.7-19.07-8.34,8.34-19.07Z"/><path class="cls-1" d="m1011.9,2496.03c12.65-39.67,42.42-56.88,77.43-45.72,37.46,11.95,44.45,42.5,33.27,76.7-.62,1.96-2.74,7.76-3.13,8.98l-84.97-27.09c-7.11,28.22,2.53,44.51,22.12,50.75,14.2,4.53,27.16,1.11,35.27-6.56l12.74,16.74c-13.52,10.26-31.74,15.78-55.49,8.2-36.97-11.79-50.13-42.42-37.24-82.01Zm28.41-2.81l59.5,18.97.31-.98c6.56-20.57,3.18-36.21-17.38-42.77-16.65-5.31-32.75.35-42.43,24.78Z"/><path class="cls-1" d="m1189.24,2661.47l2.72-18.82c3.45,1.28,8.68,2.81,12.75,3.4,14.24,2.06,21.6-3.89,30.46-23.9l-30.31-137.07,26.96,3.9,14.3,80.75,2.68,29.99,1.53.22,10.8-28.04,35.05-73.62,26.45,3.82-68.87,131.57c-11.48,21.97-24.99,36.38-50.17,32.74-5.34-.77-11.73-3.25-14.35-4.93Z"/><path class="cls-1" d="m1332.08,2566.85c.95-38.02,25.06-66.47,64.88-65.47,39.31.99,60.23,27.73,59.23,67.55-.98,39.05-25.85,67.22-64.39,66.25-40.08-1-60.75-27.74-59.73-68.34Zm97.64,1.93c.71-28.26-10.9-47.32-33.76-47.89-23.38-.59-36.44,18.11-37.15,46.11-.71,28.52,11.13,48.09,34,48.67s36.19-18.12,36.91-46.89Z"/><path class="cls-1" d="m1493.14,2586.77l-8.31-82.08,25.83-2.61,7.89,77.99c2.17,21.48,9.42,29.27,24.25,27.77,16.88-1.71,28.46-19.93,27.11-43.56l-6.83-67.5,25.82-2.61,12.86,127.08-24.03,2.43-1.5-14.83-1.23-19.77-1.53.16c-.5,12.97-11.1,38.32-36.44,40.63-27.1,2.74-40.75-12.15-43.88-43.09Z"/><path class="cls-1" d="m1627.57,2486.89l23.89-5.04,3.56,16.85,5.46,39.56,1.76-.37c-2.86-27.24,2.88-61.02,31.55-67.07l3.77-.8,6.31,29.92c-2.32.23-6.09,1.02-9.11,1.66-23.89,5.04-30.67,26.44-26.54,54.72l10.61,50.29-24.9,5.25-26.38-124.98Z"/><path class="cls-1" d="m1824.71,2534.5l-1.44.55,14.03,28.21,19.28,50.68-23.06,8.77-64.87-170.54,22.82-8.68,3.84,10.09,5.31,16.13,1.2-.46c-.12-18.38,9.6-36.92,29.78-44.6,30.51-11.6,55.1,4.61,69.26,41.85,15.81,41.56,3.92,72.47-23.94,83.07-19.7,7.49-39.19.33-52.2-15.06Zm51.89-56.58c-10.42-27.38-26.05-39.58-46.47-31.82-21.14,8.04-24.95,35.61-17.73,54.59l2.47,6.49c8.59,22.58,26.61,35.25,48.22,27.02,18.74-7.13,23.38-30.34,13.51-56.28Z"/><path class="cls-1" d="m1935.92,2398.74c1.35,2.48,7.82,17.1,7.82,17.1l1.36-.74c-4.86-21.34,1.65-43.29,22.2-54.45,21.91-11.89,41.24-4.84,55.95,22.27l40.21,74.09-22.81,12.38-37.14-68.44c-10.67-19.65-22.27-22.71-35.37-15.6-16.04,8.7-21.71,31.66-8.67,56.76l29.91,55.11-21.68,11.77-89.98-165.79,21.68-11.77,36.53,67.31Z"/><path class="cls-1" d="m2064.28,2381.53c-22.34-30.78-20.48-68.02,11.76-91.42,31.82-23.1,64.69-14.57,88.09,17.67,22.95,31.61,20.31,69.1-10.89,91.74-32.44,23.55-65.11,14.87-88.96-17.99Zm78.73-57.79c-16.61-22.88-37.4-30.96-55.91-17.53-18.93,13.74-17.94,36.53-1.49,59.2,16.76,23.09,38.06,31.44,56.57,18s17.74-36.38.83-59.67Z"/><path class="cls-1" d="m2179.94,2233.19c1.94,2.05,11.27,13.4,11.27,13.4l1.12-1.06c-10.2-19.37-9.92-42.63,6.88-58.53,18.29-17.31,39.14-15.11,60.34,7.29l57.6,60.84-18.85,17.85-53.54-56.55c-15.37-16.24-27.37-16.2-38.01-6.13-13.25,12.54-13.5,35.08,5.03,55.4l44.52,47.03-18.66,17.67-87.81-92.76,18.1-17.14,12.01,12.69Z"/><path class="cls-1" d="m2298.48,2181.6c-32.21-26.39-37.23-60.4-13.94-88.83,24.92-30.42,55.89-25.64,83.56-2.64,1.59,1.3,6.2,5.41,7.19,6.23l-56.52,68.99c23.61,17.01,42.3,14.06,55.33-1.85,9.45-11.53,11.05-24.84,6.91-35.2l20.26-5.67c4.55,16.35,2.96,35.32-12.84,54.6-24.59,30.02-57.92,30.96-89.96,4.37Zm7.87-27.44l39.58-48.31-.79-.65c-16.7-13.68-32.48-16.31-46.17.39-11.08,13.52-11.76,30.57,7.38,48.58Z"/></g></svg>