<?xml version="1.0" encoding="UTF-8"?><svg id="Layer_2" xmlns="http://www.w3.org/2000/svg" viewBox="0 0 2242.13 2377.82"><defs><style>.cls-1{fill:#fff;}</style></defs><g id="Layer_1-2"><rect x="10" y="10" width="2222.13" height="2357.82"/><path class="cls-1" d="m2242.13,2377.82H0V0h2242.13v2377.82Zm-2222.13-20h2202.13V20H20v2337.82Z"/><path class="cls-1" d="m1445.05,1609.4c-10.85,0-20.97-6.84-24.63-17.69-4.59-13.6,2.71-28.36,16.31-32.95,37.63-12.71,73.66-27.8,107.1-44.84,12.79-6.52,28.45-1.44,34.97,11.35,6.52,12.79,1.44,28.45-11.35,34.97-35.68,18.19-74.07,34.27-114.08,47.79-2.76.93-5.56,1.37-8.32,1.37Zm-709.39-23.37c-3.4,0-6.85-.67-10.17-2.09-39.21-16.7-76.22-35.99-110.01-57.35-12.14-7.67-15.76-23.73-8.08-35.87,7.67-12.14,23.73-15.76,35.87-8.08,31.43,19.87,65.95,37.85,102.59,53.46,13.21,5.63,19.36,20.9,13.73,34.11-4.21,9.89-13.82,15.82-23.93,15.82Zm921.73-86.31c-7.85,0-15.62-3.54-20.73-10.28-8.68-11.44-6.45-27.75,4.99-36.43,31.78-24.12,59.55-50.45,82.54-78.25,9.15-11.07,25.54-12.62,36.61-3.47,11.07,9.15,12.62,25.54,3.47,36.61-25.54,30.88-56.21,60-91.18,86.54-4.7,3.57-10.22,5.29-15.7,5.29Zm-1122.58-42.65c-6.5,0-13-2.42-18.05-7.29-31.94-30.81-58.55-64.09-79.07-98.91-7.29-12.37-3.17-28.31,9.2-35.6,12.37-7.29,28.31-3.17,35.6,9.2,18.13,30.77,41.81,60.34,70.37,87.88,10.33,9.97,10.63,26.43.66,36.76-5.1,5.29-11.91,7.95-18.72,7.95Zm1271.22-141.99c-3.23,0-6.51-.6-9.69-1.88-13.32-5.36-19.78-20.5-14.43-33.82,14.03-34.9,21.24-71.02,21.43-107.35.08-14.31,11.7-25.86,26-25.86.05,0,.09,0,.14,0,14.36.08,25.94,11.78,25.86,26.14-.23,42.91-8.7,85.46-25.18,126.46-4.08,10.14-13.83,16.31-24.13,16.31Zm-1388.26-62.97c-12.32,0-23.26-8.79-25.55-21.34-3.62-19.85-5.45-40.12-5.45-60.25,0-23.04,2.4-46.21,7.13-68.87,2.94-14.06,16.71-23.07,30.77-20.13,14.06,2.94,23.07,16.71,20.13,30.77-4,19.16-6.03,38.75-6.03,58.23,0,17.01,1.55,34.15,4.61,50.93,2.57,14.13-6.79,27.67-20.92,30.24-1.57.29-3.14.43-4.69.43Zm1389.52-171c-10.4,0-20.22-6.28-24.23-16.55-12.94-33.14-32.06-65.36-56.83-95.79-9.07-11.14-7.39-27.51,3.75-36.58,11.14-9.06,27.51-7.39,36.58,3.75,28.18,34.62,50.03,71.53,64.94,109.71,5.22,13.38-1.39,28.45-14.76,33.68-3.11,1.21-6.31,1.79-9.45,1.79Zm-1343.06-58.64c-4.66,0-9.38-1.25-13.64-3.88-12.22-7.55-16-23.57-8.46-35.78,21.21-34.34,48.37-67.09,80.74-97.36,10.49-9.81,26.94-9.26,36.75,1.23,9.81,10.49,9.26,26.94-1.23,36.75-29,27.12-53.23,56.29-72.02,86.71-4.92,7.96-13.43,12.34-22.15,12.34Zm1195.86-127.07c-5.53,0-11.1-1.75-15.82-5.38-29.21-22.44-62.01-43.09-97.48-61.38-12.76-6.58-17.77-22.26-11.19-35.03,6.58-12.76,22.26-17.77,35.03-11.19,38.22,19.71,73.66,42.04,105.32,66.36,11.39,8.75,13.53,25.07,4.78,36.46-5.12,6.67-12.84,10.16-20.64,10.16Zm-1023.89-37.22c-8.73,0-17.25-4.39-22.16-12.37-7.53-12.23-3.72-28.24,8.51-35.77,34.04-20.96,71.25-39.85,110.57-56.15,13.27-5.5,28.48.8,33.97,14.07,5.5,13.27-.8,28.48-14.07,33.97-36.79,15.24-71.51,32.87-103.21,52.39-4.25,2.62-8.96,3.86-13.61,3.86Zm812.11-73.42c-2.79,0-5.63-.45-8.42-1.41-35.98-12.31-73.85-22.56-112.56-30.49-14.07-2.88-23.14-16.62-20.26-30.69,2.88-14.07,16.62-23.14,30.69-20.26,40.87,8.37,80.89,19.21,118.96,32.23,13.59,4.65,20.83,19.43,16.19,33.01-3.69,10.8-13.79,17.59-24.6,17.59Zm-591.57-19.01c-11.52,0-22.05-7.71-25.12-19.38-3.66-13.88,4.62-28.11,18.51-31.77,38.99-10.28,79.6-18.37,120.7-24.05,14.22-1.96,27.35,7.98,29.31,22.2s-7.98,27.35-22.2,29.31c-39.04,5.39-77.58,13.06-114.55,22.82-2.22.59-4.45.87-6.65.87Zm357.12-29.46c-.74,0-1.5-.03-2.25-.1-29.8-2.55-60.26-3.85-90.54-3.85-8.8,0-17.71.11-26.48.33-14.33.35-26.28-11-26.63-25.35-.35-14.35,11-26.28,25.35-26.63,9.2-.23,18.54-.34,27.77-.34,31.76,0,63.71,1.36,94.98,4.04,14.31,1.23,24.91,13.82,23.68,28.13-1.16,13.55-12.52,23.78-25.88,23.78Z"/><polygon points="1121.07 351.97 684.09 604.26 1121.07 856.55 1558.04 604.26 1121.07 351.97"/><path class="cls-1" d="m1121.07,881.55c-4.32,0-8.63-1.12-12.5-3.35l-436.98-252.29c-7.74-4.47-12.5-12.72-12.5-21.65s4.76-17.18,12.5-21.65l436.98-252.29c7.73-4.47,17.27-4.47,25,0l436.98,252.29c7.74,4.47,12.5,12.72,12.5,21.65s-4.76,17.18-12.5,21.65l-436.98,252.29c-3.87,2.23-8.18,3.35-12.5,3.35Zm-386.98-277.29l386.98,223.42,386.98-223.42-386.98-223.42-386.98,223.42Z"/><polygon points="1121.07 856.55 1121.07 1361.13 1558.04 1108.84 1558.04 604.26 1121.07 856.55"/><path class="cls-1" d="m1121.07,1386.12c-4.32,0-8.63-1.12-12.5-3.35-7.74-4.47-12.5-12.72-12.5-21.65v-504.58c0-8.93,4.76-17.18,12.5-21.65l436.98-252.29c7.73-4.47,17.27-4.47,25,0,7.74,4.47,12.5,12.72,12.5,21.65v504.58c0,8.93-4.76,17.18-12.5,21.65l-436.98,252.29c-3.87,2.23-8.18,3.35-12.5,3.35Zm25-515.14v446.84l386.98-223.42v-446.84l-386.98,223.42Z"/><polygon points="1121.07 856.55 1121.07 1361.13 684.09 1108.84 684.09 604.26 1121.07 856.55"/><path class="cls-1" d="m1121.07,1386.12c-4.32,0-8.63-1.12-12.5-3.35l-436.98-252.29c-7.74-4.47-12.5-12.72-12.5-21.65v-504.58c0-8.93,4.76-17.18,12.5-21.65,7.73-4.47,17.27-4.47,25,0l436.98,252.29c7.74,4.47,12.5,12.72,12.5,21.65v504.58c0,8.93-4.76,17.19-12.5,21.65-3.87,2.23-8.18,3.35-12.5,3.35Zm-411.98-291.72l386.98,223.42v-446.84l-386.98-223.42v446.84Z"/><path class="cls-1" d="m1443.72,1609.31c-1.98,0-4-.23-6.01-.71-13.97-3.31-22.62-17.32-19.31-31.29l42-177.4c3.31-13.97,17.32-22.62,31.29-19.31,13.97,3.31,22.62,17.32,19.31,31.29l-42,177.4c-2.83,11.96-13.5,20.02-25.28,20.02Z"/><path class="cls-1" d="m1642.21,1680.7c-2.94,0-5.93-.5-8.85-1.56l-197.09-71.39c-13.5-4.89-20.48-19.8-15.59-33.3,4.89-13.5,19.8-20.48,33.3-15.59l197.09,71.39c13.5,4.89,20.48,19.8,15.59,33.3-3.83,10.58-13.81,17.15-24.45,17.15Z"/><path class="cls-1" d="m192.57,1906.86h52.4c40.42,0,56.16,16.92,56.16,41.12,0,15.51-7.99,33.6-35.48,39.48,23.5,4.93,36.89,27.26,39.95,65.56.24,4.93.47,7.75.71,8.69h-24.67c0-.94-.24-3.52-.24-7.28-2.82-37.13-14.8-55.22-41.83-55.22h-23.5v62.51h-23.5v-154.86Zm48.64,74.26c26.55,0,35.72-13.86,35.72-29.84s-7.99-25.38-35.95-25.38h-24.91v55.22h25.14Z"/><path class="cls-1" d="m330.03,2003.2c0-34.78,21.38-61.33,57.81-61.33s55.69,23.97,55.69,60.39-22.09,62.04-57.34,62.04-56.16-23.97-56.16-61.1Zm89.29-.47c0-25.85-11.04-43-31.96-43s-32.9,17.39-32.9,43,11.28,43.71,32.19,43.71,32.66-17.39,32.66-43.71Z"/><path class="cls-1" d="m458.8,1944.93h20.21v-29.14l20.91-9.63v30.08l-.94,8.69h30.55v19.03h-30.55l.94,8.93v53.11c0,15.04,3.05,18.09,15.74,18.09,6.11,0,11.75-1.17,17.62-3.05v17.62c-6.81,2.82-16.45,4.93-25.38,4.93-21.38,0-30.08-8.69-30.08-34.07v-65.56h-19.03v-19.03Z"/><path class="cls-1" d="m622.59,2036.33c-5.17,16.45-20.44,27.73-39.01,27.49-22.79,0-35.01-13.39-35.01-32.19.24-21.85,16.68-31.02,41.12-35.72,22.79-4.7,31.96-7.28,32.43-11.75v-1.88c0-14.33-7.29-21.85-23.73-21.85-14.33,0-25.38,8.22-30.08,17.86l-18.09-9.4c8.22-16.21,27.49-26.55,50.52-26.55,29.61,0,44.41,14.1,44.41,42.06v38.77c0,24.44,2.82,34.78,6.58,38.54h-23.73c-2.82-3.05-4.94-11.28-5.41-25.38Zm-.47-16.92v-23.5c-2.35,3.76-10.1,7.05-19.74,9.4-19.74,4.7-30.08,11.28-30.08,23.97,0,11.51,8.22,17.39,18.09,17.39,16.21,0,29.61-11.28,31.72-27.26Z"/><path class="cls-1" d="m668.41,1944.93h20.21v-29.14l20.91-9.63v30.08l-.94,8.69h30.55v19.03h-30.55l.94,8.93v53.11c0,15.04,3.05,18.09,15.74,18.09,6.11,0,11.75-1.17,17.62-3.05v17.62c-6.81,2.82-16.45,4.93-25.38,4.93-21.38,0-30.08-8.69-30.08-34.07v-65.56h-19.03v-19.03Z"/><path class="cls-1" d="m759.34,2003.2c0-38.07,21.15-61.33,54.75-61.33,35.95,0,50.52,24.67,50.29,57.57,0,1.88-.24,7.52-.24,8.69h-81.54c1.64,26.55,14.57,38.07,33.37,38.07,13.63,0,23.97-6.58,28.9-15.51l15.74,11.04c-8.93,12.69-23.26,22.56-46.06,22.56-35.48,0-55.46-23.03-55.22-61.1Zm23.97-10.34h57.1v-.94c0-19.74-7.28-32.43-27.02-32.43-15.98,0-28.43,9.4-30.08,33.37Z"/><path class="cls-1" d="m936.29,2106.6v-17.39c3.29.71,8.22,1.41,11.98,1.41,13.16,0,19.03-6.34,24.44-25.61l-45.35-120.08h24.91l23.5,71.2,6.34,26.79h1.41l6.11-26.79,22.09-71.2h24.44l-45.12,128.07c-7.52,21.38-17.86,36.19-41.12,36.19-4.93,0-11.04-1.41-13.63-2.58Z"/><path class="cls-1" d="m1048.37,2003.2c0-34.78,21.38-61.33,57.81-61.33s55.69,23.97,55.69,60.39-22.09,62.04-57.34,62.04-56.16-23.97-56.16-61.1Zm89.29-.47c0-25.85-11.04-43-31.96-43s-32.9,17.39-32.9,43,11.28,43.71,32.19,43.71,32.66-17.39,32.66-43.71Z"/><path class="cls-1" d="m1189.36,2020.36v-75.43h23.73v71.67c0,19.74,5.88,27.49,19.5,27.49,15.51,0,27.73-15.51,28.67-37.13v-62.04h23.73v116.79h-22.09v-13.63l.71-18.09h-1.41c-1.64,11.75-13.63,33.84-36.89,33.6-24.91,0-35.95-14.8-35.95-43.24Z"/><path class="cls-1" d="m1322.83,1944.93h22.32v15.74l-2.58,36.42h1.65c2.58-24.91,14.1-54.05,40.89-54.05h3.52v27.96c-2.12-.24-5.64-.24-8.46-.24-22.32,0-32.43,17.86-34.07,43.94v47h-23.26v-116.79Z"/><path class="cls-1" d="m1479.56,2033.52h-1.41l2.82,28.67v49.58h-22.56v-166.84h22.32v9.87l-.71,15.51h1.17c5.87-15.74,20.21-28.43,39.95-28.43,29.84,0,45.59,21.85,45.59,58.28,0,40.65-20.21,63.21-47.47,63.21-19.27,0-33.6-12.45-39.71-29.84Zm62.74-31.49c0-26.79-9.4-42.3-29.37-42.3s-32.9,22.32-32.9,40.89v6.34c0,22.09,11.28,38.77,32.43,38.77,18.33,0,29.84-18.33,29.84-43.71Z"/><path class="cls-1" d="m1619.38,1959.26c0,2.58-1.17,17.15-1.17,17.15h1.41c5.4-19.27,20.21-34.07,41.59-34.07,22.79,0,35.25,14.1,35.25,42.3v77.08h-23.73v-71.2c0-20.44-7.99-27.96-21.62-27.96-16.68,0-31.25,15.98-31.72,41.83v57.34h-22.56v-172.48h22.56v70.03Z"/><path class="cls-1" d="m1724.65,2003.2c0-34.78,21.38-61.33,57.81-61.33s55.69,23.97,55.69,60.39-22.09,62.04-57.34,62.04-56.16-23.97-56.16-61.1Zm89.29-.47c0-25.85-11.04-43-31.96-43s-32.9,17.39-32.9,43,11.28,43.71,32.19,43.71,32.66-17.39,32.66-43.71Z"/><path class="cls-1" d="m1890.31,1960.9c0,2.58-.94,15.98-.94,15.98h1.41c5.41-19.27,20.21-34.54,41.36-34.54,23.03,0,35.48,14.57,35.48,42.77v76.61h-23.73v-71.2c0-20.44-7.99-27.96-21.38-27.96-16.68,0-31.02,14.8-31.49,39.95v59.22h-23.5v-116.79h22.79v15.98Z"/><path class="cls-1" d="m1996.29,2003.2c0-38.07,21.15-61.33,54.75-61.33,35.95,0,50.52,24.67,50.29,57.57,0,1.88-.23,7.52-.23,8.69h-81.54c1.64,26.55,14.57,38.07,33.37,38.07,13.63,0,23.97-6.58,28.9-15.51l15.74,11.04c-8.93,12.69-23.26,22.56-46.06,22.56-35.48,0-55.46-23.03-55.22-61.1Zm23.97-10.34h57.1v-.94c0-19.74-7.28-32.43-27.02-32.43-15.98,0-28.43,9.4-30.08,33.37Z"/></g></svg>