<?xml version="1.0" encoding="utf-8"?>
<!-- Generator: Adobe Illustrator 27.2.0, SVG Export Plug-In . SVG Version: 6.00 Build 0)  -->
<svg version="1.1" id="Layer_1" xmlns="http://www.w3.org/2000/svg" xmlns:xlink="http://www.w3.org/1999/xlink" x="0px" y="0px"
	 viewBox="0 0 740.8 1027.9" style="enable-background:new 0 0 740.8 1027.9;" xml:space="preserve">
<style type="text/css">
	.st0{clip-path:url(#SVGID_00000075849276853246546780000004717734752087457952_);}
	.st1{fill:#EC71EA;}
	.st2{fill:#89F955;}
	.st3{fill:#FDF65B;}
	.st4{fill:#FFFFFF;}
</style>
<rect width="740.8" height="1027.9"/>
<g>
	<g>
		<defs>
			<rect id="SVGID_1_" x="2.2" y="1601.5" width="1917.8" height="1021.5"/>
		</defs>
		<clipPath id="SVGID_00000144316318536124078530000013668089002094406056_">
			<use xlink:href="#SVGID_1_"  style="overflow:visible;"/>
		</clipPath>
		<g style="clip-path:url(#SVGID_00000144316318536124078530000013668089002094406056_);">
			<defs>
				
					<rect id="SVGID_00000127019379228916090940000005589916086819406516_" x="-560.1" y="1508.7" transform="matrix(0.7716 -0.6361 0.6361 0.7716 -1635.355 1072.179)" width="2471" height="2609.7"/>
			</defs>
			<clipPath id="SVGID_00000007403695402531054750000008937622603011600531_">
				<use xlink:href="#SVGID_00000127019379228916090940000005589916086819406516_"  style="overflow:visible;"/>
			</clipPath>
		</g>
	</g>
</g>
<g>
	<path class="st3" d="M84.4,623.2l8.6-5.8v-0.3l-8.6-5.8v-48.9h25.2l19,52.5h-11.9l17.7-52.5h25.2v48.9l-8.6,5.8v0.3l8.6,5.8v48.9
		h-20.4v-89.9l5.6,4.7l-20.5,58.6h-4.7l-20.5-58.6l5.6-4.7v89.9H84.4V623.2z"/>
	<path class="st3" d="M172,667.2c-3.2-3.2-4.9-7.9-4.9-13.9v-30.1l8.6-5.8v-0.3l-8.6-5.8V600c0-6.2,1.6-10.8,4.9-14
		c3.2-3.2,7.9-4.8,13.9-4.8h23.8v17.2h-15.7c-2.9,0-4.4,1.5-4.4,4.4v8.5l-8.6,5.8v0.3l8.6,5.8v25.7c0,2.9,1.5,4.4,4.4,4.4h7.2v4.9
		h-3l-8.5,13.9h-3.9C179.9,672.1,175.2,670.5,172,667.2z M207.1,672.1l-8.6-14.3v-34.6l8.6-5.8v-0.3l-8.6-5.8v-30.1H221v30.1
		l-8.6,5.8v0.3l8.6,5.8v48.9H207.1z"/>
	<path class="st3" d="M230.9,623.2l8.9-5.8v-0.3l-10.7-5.8l-4.1-30.1H248l2.7,28.5l2.4,34h1.9l2.5-34l2.5-28.5h22.9l-4.1,30.1
		l-10.7,5.8v0.3l8.9,5.8l-6.1,48.9H237L230.9,623.2z M230.7,676.8h12.8c2.6,0,4.1-1.5,4.4-4.4l2.4-18.8h22.6l-2.4,21.6
		c-0.6,6.3-2.4,11-5.3,14.1c-2.9,3.1-7.4,4.7-13.5,4.7h-21V676.8z"/>
	<path class="st3" d="M314.7,623.2l8.6-5.8v-0.3l-8.6-5.8V585l-11-10.3v-1.9l11-10.3h22.6v48.9l-8.6,5.8v0.3l8.6,5.8v48.9h-22.6
		V623.2z"/>
	<path class="st3" d="M345.6,629.5c0.9-2.3,2.4-4.5,4.4-6.7l23.3-24.8c1.5-1.6,2.2-3.4,2.2-5.5v-6.9c0-2.9-1.5-4.4-4.4-4.4
		c-2.9,0-4.4,1.5-4.4,4.4v12.8h-22.6v-17.2c0-6.2,1.6-10.8,4.9-14c3.2-3.2,7.9-4.8,13.9-4.8h16.3c6.2,0,10.8,1.6,14,4.8
		c3.2,3.2,4.8,7.9,4.8,14v14.9c0,3-0.5,5.7-1.4,8c-0.9,2.3-2.4,4.5-4.4,6.7l-23.3,24.8c-1.5,1.6-2.2,3.4-2.2,5.5v18.8l-3.8-6.6h12.5
		v-15l10.3-11h1.9l10.3,11v33.8h-53.9v-34.6C344.2,634.4,344.6,631.8,345.6,629.5z"/>
</g>
<g>
	<path class="st2" d="M84.4,527.6l3.9-2.6v-0.1l-3.9-2.6v-22h15.8c2.8,0,4.9,0.7,6.3,2.2c1.4,1.4,2.2,3.5,2.2,6.3v32.5
		c0,2.7-0.7,4.8-2.2,6.3c-1.4,1.5-3.5,2.2-6.3,2.2H84.4V527.6z M97.9,540.5c0.4-0.4,0.7-1.1,0.7-1.9v-27.4c0-0.8-0.2-1.4-0.7-1.9
		c-0.4-0.4-1.1-0.7-1.9-0.7h-1.4v13.6l-3.9,2.6v0.1l3.9,2.6v13.6H96C96.8,541.2,97.4,541,97.9,540.5z"/>
	<path class="st2" d="M113.7,547.5c-1.5-1.5-2.2-3.6-2.2-6.3v-13.6l3.9-2.6v-0.1l-3.9-2.6v-5.1c0-2.8,0.7-4.9,2.2-6.3
		c1.5-1.4,3.6-2.2,6.3-2.2h7.3c2.8,0,4.9,0.7,6.3,2.2c1.4,1.4,2.2,3.5,2.2,6.3v15.5h-10.2v-14.3c0-1.3-0.7-2-2-2c-1.3,0-2,0.7-2,2
		v6.5h10.2v7.8h-10.2v7.2c0,1.3,0.7,2,2,2c1.3,0,2-0.7,2-2v-3.7h10.2v4.9c0,2.7-0.7,4.8-2.2,6.3c-1.4,1.5-3.5,2.2-6.3,2.2H120
		C117.3,549.6,115.2,548.9,113.7,547.5z"/>
	<path class="st2" d="M140.7,547.5c-1.5-1.5-2.2-3.6-2.2-6.3v-13.6l3.9-2.6v-0.1l-3.9-2.6v-5.1c0-2.8,0.7-4.9,2.2-6.3
		c1.5-1.4,3.6-2.2,6.3-2.2h10.7v7.8h-7.1c-1.3,0-2,0.7-2,2v3.8l-3.9,2.6v0.1l3.9,2.6v11.6c0,1.3,0.7,2,2,2h3.2v2.2h-1.3l-3.8,6.3
		H147C144.2,549.6,142.1,548.9,140.7,547.5z M156.5,549.6l-3.9-6.4v-15.6l3.9-2.6v-0.1l-3.9-2.6v-13.6h10.2v13.6l-3.9,2.6v0.1
		l3.9,2.6v22H156.5z"/>
	<path class="st2" d="M168.4,547.5c-1.5-1.5-2.2-3.6-2.2-6.3v-13.6l3.9-2.6v-0.1l-3.9-2.6v-5.1c0-2.8,0.7-4.9,2.2-6.3
		c1.5-1.4,3.6-2.2,6.3-2.2h10.7v7.8h-7.1c-1.3,0-2,0.7-2,2v3.8l-3.9,2.6v0.1l3.9,2.6v11.6c0,1.3,0.7,2,2,2h3.2v2.2h-1.3l-3.8,6.3
		h-1.8C171.9,549.6,169.8,548.9,168.4,547.5z M184.2,549.6l-3.9-6.4v-15.6l3.9-2.6v-0.1l-3.9-2.6v-22h10.2v22l-3.9,2.6v0.1l3.9,2.6
		v22H184.2z"/>
	<path class="st2" d="M194.4,527.6l3.9-2.6v-0.1l-3.9-2.6v-22h10.2v22l-3.9,2.6v0.1l3.9,2.6v22h-10.2V527.6z"/>
	<path class="st2" d="M208.5,500.2h10.2v6.5h-10.2V500.2z M208.5,527.6l3.9-2.6v-0.1l-3.9-2.6v-13.6h10.2v13.6l-3.9,2.6v0.1l3.9,2.6
		v22h-10.2V527.6z"/>
	<path class="st2" d="M236.8,527.6l3.9-2.6v-0.1l-3.9-2.6v-3.8c0-1.3-0.7-2-2-2h-2v5.8l-3.9,2.6v0.1l3.9,2.6v22h-10.2v-22l3.9-2.6
		v-0.1l-3.9-2.6v-13.6h15.8c2.8,0,4.9,0.7,6.3,2.2c1.4,1.4,2.2,3.5,2.2,6.3v5.1l-3.9,2.6v0.1l3.9,2.6v22h-10.2V527.6z"/>
	<path class="st2" d="M252.3,547.5c-1.5-1.5-2.2-3.6-2.2-6.3v-13.6l3.9-2.6v-0.1l-3.9-2.6v-5.1c0-2.8,0.7-4.9,2.2-6.3
		c1.5-1.4,3.6-2.2,6.3-2.2h7.3c2.8,0,4.9,0.7,6.3,2.2c1.4,1.4,2.2,3.5,2.2,6.3v15.5h-10.2v-14.3c0-1.3-0.7-2-2-2c-1.3,0-2,0.7-2,2
		v6.5h10.2v7.8h-10.2v7.2c0,1.3,0.7,2,2,2c1.3,0,2-0.7,2-2v-3.7h10.2v4.9c0,2.7-0.7,4.8-2.2,6.3c-1.4,1.5-3.5,2.2-6.3,2.2h-7.3
		C255.8,549.6,253.7,548.9,252.3,547.5z"/>
</g>
<g>
	<path class="st3" d="M403.2,566.1h27.6v10.3h-27.6V566.1z M410.8,617.6c-1.9-1.9-2.9-4.7-2.9-8.3v-18l5.2-3.5v-0.2l-5.2-3.5v-29.2
		h13.5v29.2l-5.2,3.5v0.2l5.2,3.5v16.3c0,1.8,0.9,2.6,2.6,2.6h6.7v10.3h-11.6C415.5,620.5,412.7,619.5,410.8,617.6z"/>
	<path class="st3" d="M451.8,591.2l5.2-3.5v-0.2l-5.2-3.5V579c0-1.7-0.9-2.6-2.6-2.6h-2.6v7.7l-5.2,3.5v0.2l5.2,3.5v29.2H433v-29.2
		l5.2-3.5v-0.2l-5.2-3.5v-29.2h13.5v11.2h7.5c3.7,0,6.5,1,8.4,2.9c1.9,1.9,2.9,4.7,2.9,8.4v6.7l-5.2,3.5v0.2l5.2,3.5v29.2h-13.5
		V591.2z"/>
</g>
<g>
	<path class="st1" d="M89.3,482.6c-3.3-3.2-4.9-7.9-4.9-14v-30.2l8.7-5.8v-0.3l-8.7-5.8v-30.2c0-6.2,1.6-10.9,4.9-14.1
		c3.2-3.2,7.9-4.8,14-4.8h16.4c6.2,0,10.9,1.6,14.1,4.8c3.2,3.2,4.8,7.9,4.8,14.1v23.6h-22.7v-19.2c0-2.9-1.5-4.4-4.4-4.4
		c-2.9,0-4.4,1.5-4.4,4.4v25.8l-8.7,5.8v0.3l8.7,5.8v25.8c0,2.9,1.5,4.4,4.4,4.4c2.9,0,4.4-1.5,4.4-4.4V445h22.7v23.6
		c0,6.1-1.6,10.8-4.8,14c-3.2,3.3-7.9,4.9-14.1,4.9h-16.4C97.2,487.4,92.5,485.8,89.3,482.6z"/>
	<path class="st1" d="M148.7,482.6c-3.3-3.2-4.9-7.9-4.9-14v-30.2l8.7-5.8v-0.3l-8.7-5.8v-30.2c0-6.2,1.6-10.9,4.9-14.1
		c3.2-3.2,7.9-4.8,14-4.8h16.4c6.2,0,10.9,1.6,14.1,4.8c3.2,3.2,4.8,7.9,4.8,14.1v30.2l-8.7,5.8v0.3l8.7,5.8v30.2
		c0,6.1-1.6,10.8-4.8,14c-3.2,3.3-7.9,4.9-14.1,4.9h-16.4C156.7,487.4,152,485.8,148.7,482.6z M175.3,464.2v-25.8l8.7-5.8v-0.3
		l-8.7-5.8v-25.8c0-2.9-1.5-4.4-4.4-4.4c-2.9,0-4.4,1.5-4.4,4.4v25.8l-8.7,5.8v0.3l8.7,5.8v25.8c0,2.9,1.5,4.4,4.4,4.4
		C173.9,468.6,175.3,467.1,175.3,464.2z"/>
	<path class="st1" d="M205.5,438.4l8.7-5.8v-0.3l-8.7-5.8v-49.1h22.7v49.1l-8.7,5.8v0.3l8.7,5.8v30.2h8.8v-28.3h22.7v47.2h-54.1
		V438.4z"/>
	<path class="st1" d="M268.9,482.6c-3.3-3.2-4.9-7.9-4.9-14v-30.2l8.7-5.8v-0.3l-8.7-5.8v-30.2c0-6.2,1.6-10.9,4.9-14.1
		c3.2-3.2,7.9-4.8,14-4.8h16.4c6.2,0,10.9,1.6,14.1,4.8c3.2,3.2,4.8,7.9,4.8,14.1v30.2l-8.7,5.8v0.3l8.7,5.8v30.2
		c0,6.1-1.6,10.8-4.8,14c-3.2,3.3-7.9,4.9-14.1,4.9h-16.4C276.8,487.4,272.2,485.8,268.9,482.6z M295.5,464.2v-25.8l8.7-5.8v-0.3
		l-8.7-5.8v-25.8c0-2.9-1.5-4.4-4.4-4.4c-2.9,0-4.4,1.5-4.4,4.4v25.8l-8.7,5.8v0.3l8.7,5.8v25.8c0,2.9,1.5,4.4,4.4,4.4
		C294,468.6,295.5,467.1,295.5,464.2z"/>
	<path class="st1" d="M362,432.1v0.3l17.8,10.9v44.2h-22.7V451c0-1.8-0.5-3.2-1.5-4.2c-1-1-2.4-1.5-4.2-1.5h-3.1v42.2h-22.7v-49.1
		l8.7-5.8v-0.3l-8.7-5.8v-49.1h35.2c6.2,0,10.9,1.6,14.1,4.8c3.2,3.2,4.8,7.9,4.8,14.1v25L362,432.1z M355.7,424.9
		c1-1,1.5-2.4,1.5-4.2v-18.9c0-1.8-0.5-3.2-1.5-4.2c-1-1-2.4-1.5-4.2-1.5h-3.1v30.2h3.1C353.3,426.4,354.7,425.9,355.7,424.9z"/>
	<path class="st1" d="M387,438.4l8.7-5.8v-0.3l-8.7-5.8v-49.1h54.1v36.2h-22.7v-17.3h-8.8v30.2l-8.7,5.8v0.3l8.7,5.8v49.1H387V438.4
		z M398.5,421.1H433v22.7h-34.4V421.1z"/>
	<path class="st1" d="M450.7,482.6c-3.3-3.2-4.9-7.9-4.9-14v-30.2l8.7-5.8v-0.3l-8.7-5.8v-49.1h22.7v49.1l-8.7,5.8v0.3l8.7,5.8v25.8
		c0,2.9,1.5,4.4,4.4,4.4c2.9,0,4.4-1.5,4.4-4.4v-25.8l8.7-5.8v-0.3l-8.7-5.8v-49.1H500v49.1l-8.7,5.8v0.3l8.7,5.8v30.2
		c0,6.1-1.6,10.8-4.8,14c-3.2,3.3-7.9,4.9-14.1,4.9h-16.4C458.7,487.4,454,485.8,450.7,482.6z"/>
	<path class="st1" d="M508.2,438.4l8.7-5.8v-0.3l-8.7-5.8v-49.1h22.7v49.1l-8.7,5.8v0.3l8.7,5.8v30.2h8.8v-28.3h22.7v47.2h-54.1
		V438.4z"/>
	<path class="st1" d="M638.3,482.6c-3.2,3.3-7.9,4.9-14.1,4.9h-16.4c-6.1,0-10.8-1.6-14-4.9c-3.3-3.2-4.9-7.9-4.9-14v-17.3h22.7
		v12.9c0,2.9,1.5,4.4,4.4,4.4c2.9,0,4.4-1.5,4.4-4.4v-17.9c0-2.9-1.5-4.4-4.4-4.4h-10.4V423h10.4c2.9,0,4.4-1.5,4.4-4.4v-17.9
		c0-2.9-1.5-4.4-4.4-4.4c-2.9,0-4.4,1.5-4.4,4.4v12.9H589v-17.3c0-6.2,1.6-10.9,4.9-14.1c3.2-3.2,7.9-4.8,14-4.8h16.4
		c6.2,0,10.9,1.6,14.1,4.8c3.2,3.2,4.8,7.9,4.8,14.1v30.2l-8.7,5.8v0.3l8.7,5.8v30.2C643.1,474.7,641.5,479.3,638.3,482.6z
		 M593.7,433.2v-1.6l7.2-8.7h7.2l7.2,8.7v1.6l-7.2,8.7H601L593.7,433.2z"/>
</g>
</svg>
