<?xml version="1.0" encoding="UTF-8"?>
<svg id="Layer_2" data-name="Layer 2" xmlns="http://www.w3.org/2000/svg" viewBox="0 0 2848.38 2848.38">
  <defs>
    <style>
      .cls-1 {
        fill: #fff;
      }
    </style>
  </defs>
  <g id="Layer_1-2" data-name="Layer 1">
    <g>
      <circle cx="1424.19" cy="1424.19" r="1411.49"/>
      <path class="cls-1" d="m1424.19,2848.38c-192.26,0-378.77-37.66-554.36-111.93-84.39-35.69-165.79-79.87-241.92-131.31-75.41-50.95-146.32-109.45-210.77-173.9-64.44-64.44-122.95-135.36-173.9-210.77-51.44-76.14-95.62-157.53-131.31-241.92C37.66,1802.97,0,1616.45,0,1424.19s37.66-378.77,111.93-554.36c35.69-84.39,79.87-165.79,131.31-241.92,50.95-75.41,109.45-146.32,173.9-210.77,64.44-64.44,135.36-122.95,210.77-173.9,76.14-51.44,157.53-95.62,241.92-131.31C1045.42,37.66,1231.93,0,1424.19,0s378.77,37.66,554.36,111.93c84.39,35.69,165.79,79.87,241.92,131.31,75.41,50.95,146.32,109.45,210.77,173.9,64.44,64.44,122.95,135.36,173.9,210.77,51.44,76.14,95.62,157.53,131.31,241.92,74.27,175.59,111.93,362.1,111.93,554.36s-37.66,378.77-111.93,554.36c-35.69,84.39-79.87,165.79-131.31,241.92-50.95,75.41-109.45,146.32-173.9,210.77-64.44,64.44-135.36,122.95-210.77,173.9-76.14,51.44-157.53,95.62-241.92,131.31-175.59,74.27-362.1,111.93-554.36,111.93Zm0-2822.98c-188.84,0-372.02,36.98-544.47,109.92-82.88,35.06-162.82,78.45-237.6,128.96-74.07,50.04-143.72,107.51-207.02,170.81-63.3,63.3-120.77,132.95-170.81,207.02-50.52,74.78-93.91,154.72-128.96,237.6-72.94,172.44-109.92,355.63-109.92,544.47s36.98,372.03,109.92,544.47c35.06,82.88,78.45,162.82,128.96,237.6,50.04,74.07,107.51,143.72,170.81,207.03,63.3,63.3,132.95,120.77,207.02,170.81,74.78,50.52,154.72,93.91,237.6,128.96,172.44,72.94,355.63,109.92,544.47,109.92s372.02-36.98,544.47-109.92c82.88-35.06,162.82-78.45,237.6-128.96,74.07-50.04,143.72-107.51,207.03-170.81,63.3-63.3,120.77-132.95,170.81-207.03,50.52-74.78,93.91-154.72,128.97-237.6,72.94-172.44,109.92-355.63,109.92-544.47s-36.98-372.02-109.92-544.47c-35.06-82.88-78.45-162.82-128.97-237.6-50.04-74.07-107.51-143.72-170.81-207.02-63.3-63.3-132.95-120.77-207.03-170.81-74.78-50.52-154.72-93.91-237.6-128.96-172.44-72.94-355.63-109.92-544.47-109.92Z"/>
    </g>
    <g>
      <path class="cls-1" d="m1778.84,772.23h-167.6c-6.41-35.81-13.48-69.72-21.08-100.95-3.58-14.73-18.42-23.76-33.15-20.18-14.73,3.58-23.76,18.42-20.18,33.15,6.65,27.33,12.89,56.84,18.63,87.98h-484.7c-89.56,0-162.43,72.87-162.43,162.43v196.88c-36.53,6.09-71.3,12.86-103.48,20.16-14.78,3.36-24.04,18.06-20.69,32.84,2.89,12.74,14.21,21.37,26.74,21.37,2.01,0,4.06-.22,6.1-.69,28.5-6.47,59.14-12.51,91.33-18.02v455.54c0,89.56,72.87,162.43,162.43,162.43h708.08c89.56,0,162.43-72.87,162.43-162.43v-708.08c0-89.56-72.87-162.43-162.43-162.43Zm115.39,351.99c-35.24-5.11-72.25-9.68-110.13-13.58-15.08-1.55-28.56,9.41-30.11,24.49-1.55,15.08,9.41,28.56,24.49,30.11,38.69,3.98,76.46,8.67,112.23,13.93,1.18.17,2.35.26,3.52.28v463.29c0,30.67-12.05,59.6-33.92,81.47-21.87,21.87-50.8,33.92-81.47,33.92h-152.72c4.68-34.66,8.84-70.89,12.37-107.86,1.44-15.09-9.62-28.49-24.71-29.93-15.09-1.44-28.49,9.62-29.93,24.71-3.69,38.63-8.07,76.45-13.03,112.39-.03.23-.05.46-.08.69h-499.99c-30.67,0-59.6-12.04-81.47-33.92-21.87-21.87-33.91-50.8-33.91-81.47v-708.08c0-30.67,12.04-59.6,33.91-81.47,21.87-21.87,50.8-33.91,81.47-33.91h708.08c30.67,0,59.6,12.04,81.47,33.91s33.92,50.8,33.92,81.47v189.56Z"/>
      <path class="cls-1" d="m1429.47,2159.84c-1.59.36-3.12.54-4.67.54-14.9,0-33.75-18.1-51.74-49.67-7.5-13.17-24.26-17.76-37.43-10.26-13.17,7.5-17.76,24.26-10.26,37.43,29.26,51.35,62.71,77.38,99.43,77.38,5.64,0,11.33-.65,16.9-1.92,14.77-3.38,24.01-18.09,20.64-32.87-3.38-14.77-18.09-24.01-32.87-20.64Z"/>
      <path class="cls-1" d="m1548.84,2004.29c-14.39-4.74-29.91,3.08-34.65,17.47-13.57,41.18-28.11,74.24-43.22,98.26-8.07,12.83-4.21,29.77,8.62,37.84,4.54,2.85,9.59,4.22,14.58,4.22,9.12,0,18.04-4.55,23.26-12.84,17.47-27.79,33.92-64.9,48.88-110.3,4.74-14.39-3.08-29.91-17.47-34.65Z"/>
      <path class="cls-1" d="m1590.34,1813.86c-14.93-2.61-29.15,7.38-31.75,22.31-6.88,39.37-14.58,76.38-22.89,110.02-3.64,14.71,5.35,29.59,20.06,33.22,2.21.55,4.42.81,6.6.81,12.32,0,23.53-8.36,26.62-20.87,8.61-34.87,16.58-73.13,23.67-113.74,2.61-14.93-7.38-29.15-22.31-31.75Z"/>
      <path class="cls-1" d="m1337.73,520.82c4.39,2.6,9.21,3.84,13.96,3.84,9.38,0,18.51-4.81,23.63-13.46,17.23-29.09,35.27-45.77,49.47-45.77,2.25,0,4.5.38,6.86,1.15,14.4,4.72,29.9-3.13,34.62-17.53,4.72-14.4-3.13-29.9-17.53-34.62-7.86-2.57-15.92-3.88-23.96-3.88-35.58,0-68.11,24.45-96.69,72.67-7.73,13.04-3.42,29.87,9.62,37.6Z"/>
      <path class="cls-1" d="m1279.15,706.54c2.17.52,4.33.77,6.46.77,12.38,0,23.62-8.44,26.65-21.01,9.69-40.1,20.3-75.91,31.56-106.42,5.24-14.22-2.03-30-16.25-35.24-14.22-5.25-30,2.03-35.24,16.25-11.99,32.51-23.23,70.37-33.42,112.53-3.56,14.73,5.5,29.56,20.23,33.12Z"/>
      <path class="cls-1" d="m1342.19,2041.43c-8.19-22.71-16.04-48.26-23.42-76.21l77.91,48.76-17.74-76.99-111.56-69.77-69.77,111.56,17.74,76.99,49.61-79.38c8.01,30.63,16.59,58.68,25.61,83.67,4.03,11.18,14.58,18.14,25.81,18.14,3.09,0,6.24-.53,9.31-1.64,14.26-5.14,21.64-20.87,16.5-35.13Z"/>
      <path class="cls-1" d="m1584.31,985.58c1.33,14.22,13.29,24.88,27.29,24.88.86,0,1.73-.04,2.6-.12,15.09-1.42,26.17-14.8,24.76-29.89-3.7-39.37-8.1-77.95-13.09-114.68-2.04-15.02-15.87-25.54-30.88-23.5-15.02,2.04-25.54,15.87-23.5,30.88,4.88,35.98,9.2,73.8,12.83,112.42Z"/>
      <path class="cls-1" d="m1515.65,608.53c3.75,11.62,14.52,19.01,26.11,19.01,2.8,0,5.64-.43,8.44-1.34,14.42-4.66,22.33-20.13,17.67-34.55-14.58-45.12-30.61-82.3-47.63-110.51-7.83-12.98-24.7-17.15-37.67-9.32-12.98,7.83-17.15,24.7-9.32,37.67,14.84,24.6,29.11,57.92,42.4,99.04Z"/>
      <path class="cls-1" d="m1624.9,1425.71c-15.15-.56-27.88,11.26-28.44,26.4-1.42,38.19-3.45,76.29-6.03,113.23-1.06,15.12,10.34,28.23,25.46,29.29.65.05,1.3.07,1.94.07,14.28,0,26.34-11.06,27.35-25.53,2.62-37.53,4.68-76.23,6.13-115.02.56-15.14-11.26-27.88-26.4-28.44Z"/>
      <path class="cls-1" d="m1625.68,1230.77c-15.15.22-27.26,12.68-27.05,27.83.25,17.96.38,36.23.38,54.31,0,19.69-.15,39.59-.46,59.15-.24,15.15,11.86,27.63,27.01,27.86.15,0,.29,0,.43,0,14.96,0,27.2-12.01,27.43-27.02.31-19.84.46-40.03.46-60,0-18.34-.13-36.87-.39-55.09-.22-15.15-12.67-27.28-27.83-27.05Z"/>
      <path class="cls-1" d="m2150.59,1463.75c14.4-4.74,22.22-20.25,17.48-34.65-4.74-14.4-20.25-22.22-34.65-17.48-7.97,2.62-16.28,5.21-24.86,7.76l46.74-78.94-76.53,19.63-67.01,113.24,113.24,67.01,76.53-19.63-80.69-47.72c10.29-3.02,20.23-6.1,29.75-9.23Z"/>
      <path class="cls-1" d="m2085.85,1217.49c12.14,0,23.24-8.12,26.5-20.4,3.89-14.65-4.83-29.68-19.48-33.57-34.52-9.17-72.73-17.67-113.57-25.28-14.9-2.78-29.23,7.05-32,21.95-2.78,14.9,7.05,29.23,21.95,32,39.49,7.35,76.34,15.55,109.53,24.37,2.36.63,4.73.93,7.06.93Z"/>
      <path class="cls-1" d="m2153.58,1239.64c41.5,14.99,73.08,30.87,93.88,47.2,5.03,3.95,11,5.86,16.93,5.86,8.13,0,16.19-3.6,21.6-10.5,9.36-11.92,7.28-29.17-4.64-38.53-25.4-19.94-62.12-38.67-109.12-55.65-14.25-5.15-29.98,2.23-35.13,16.49-5.15,14.25,2.23,29.98,16.49,35.13Z"/>
      <path class="cls-1" d="m606.96,1361.1c-19.11-13.85-29.63-27.69-29.63-38.95,0-5.58,2.37-11.47,7.24-18,9.06-12.15,6.56-29.34-5.59-38.4-12.15-9.06-29.34-6.56-38.4,5.59-12.03,16.13-18.13,33.23-18.13,50.81,0,30.17,17.6,58.22,52.3,83.38,4.87,3.53,10.5,5.23,16.08,5.23,8.5,0,16.87-3.93,22.24-11.34,8.9-12.27,6.16-29.43-6.11-38.32Z"/>
      <path class="cls-1" d="m2304.59,1306.15c-14.78-3.37-29.49,5.88-32.85,20.66-1.83,8.01-12,29.56-66.92,56.46-13.61,6.67-19.24,23.11-12.57,36.72,4.76,9.73,14.52,15.38,24.66,15.38,4.05,0,8.17-.9,12.05-2.8,56.78-27.82,88.28-58.42,96.28-93.55,3.37-14.78-5.88-29.49-20.66-32.85Z"/>
      <path class="cls-1" d="m777.49,1429.5c-40.32-10.46-75.69-21.87-105.14-33.92-14.03-5.74-30.05.98-35.79,15-5.74,14.03.98,30.05,15,35.79,31.72,12.98,69.46,25.18,112.15,36.25,2.31.6,4.63.89,6.91.89,12.2,0,23.34-8.2,26.54-20.56,3.8-14.67-5-29.65-19.67-33.45Z"/>
      <path class="cls-1" d="m1506.8,1093.92c-27.07-.58-54.66-.87-82-.87-11,0-22.13.05-33.09.14-15.16.13-27.34,12.52-27.21,27.67s12.51,27.35,27.67,27.21c10.78-.09,21.72-.14,32.54-.14,26.95.05,54.2.29,80.92.86.2,0,.4,0,.6,0,14.88,0,27.11-11.9,27.42-26.86.32-15.15-11.7-27.7-26.85-28.02Z"/>
      <path class="cls-1" d="m740.67,1225.03c14.53-4.32,22.8-19.6,18.48-34.13-4.32-14.53-19.6-22.8-34.13-18.48-44.04,13.1-81.48,27.49-111.26,42.77-13.48,6.92-18.81,23.46-11.89,36.94,4.86,9.48,14.47,14.92,24.44,14.92,4.22,0,8.5-.98,12.51-3.03,26.78-13.74,61.04-26.86,101.85-38.99Z"/>
      <path class="cls-1" d="m1310.46,1094.75c-38.72,1.16-77.43,2.92-115.04,5.25-15.13.94-26.63,13.96-25.69,29.09.9,14.55,12.98,25.75,27.36,25.75.57,0,1.15-.02,1.72-.05,37.03-2.29,75.15-4.04,113.29-5.17,15.15-.45,27.06-13.1,26.61-28.25-.45-15.15-13.1-27.07-28.25-26.61Z"/>
      <path class="cls-1" d="m1703.03,1103.38c-18.13-1.39-36.54-2.64-55.12-3.76-.73-12.79-1.52-25.5-2.38-38.07-1.03-15.12-14.13-26.54-29.25-25.5-15.12,1.03-26.54,14.13-25.5,29.25.71,10.4,1.37,20.89,2,31.44-1.58-.07-3.15-.15-4.73-.21-15.14-.66-27.95,11.09-28.6,26.23-.65,15.14,11.09,27.95,26.23,28.6,3.31.14,6.61.3,9.91.45.39,8.9.74,17.81,1.06,26.73.53,14.81,12.7,26.46,27.41,26.46.33,0,.67,0,1-.02,15.15-.54,26.98-13.26,26.44-28.41-.26-7.27-.55-14.54-.85-21.8,16.23,1,32.33,2.11,48.2,3.33.71.05,1.42.08,2.13.08,14.2,0,26.23-10.95,27.33-25.35,1.16-15.11-10.15-28.3-25.27-29.46Z"/>
      <path class="cls-1" d="m1114.29,1106.02c-39.29,3.41-77.89,7.51-114.73,12.19-15.03,1.91-25.67,15.65-23.76,30.68,1.76,13.86,13.57,23.99,27.19,23.99,1.15,0,2.32-.07,3.49-.22,36.13-4.59,74-8.61,112.56-11.96,15.1-1.31,26.28-14.61,24.97-29.71-1.31-15.1-14.61-26.28-29.71-24.97Z"/>
    </g>
    <g>
      <path class="cls-1" d="m410.07,1951.61c44.65-28.45,90.7-21.22,116.25,18.87,19.61,30.78,16.93,60.52-8.42,86.73l-18.28-19.13c18.59-20.08,20.87-37.07,8.58-56.36-16.99-26.66-49.29-29.54-83.32-7.85l-.65.41c-33.81,21.54-46.11,51.02-28.3,78.98,13.95,21.89,33.07,24.64,56.42,15.85l9.69,24.3c-33.99,13.13-64.08,2.74-84.24-28.9-26.24-41.18-11.94-84.73,32.28-112.9Z"/>
      <path class="cls-1" d="m592.64,2036.63l15.68,19.71-147.63,117.43-15.68-19.71,147.63-117.43Z"/>
      <path class="cls-1" d="m587.44,2125.95l17,18.93-95.05,85.33-17-18.93,95.05-85.33Zm16.76-17.11l18.93-17c.96-.86,2.04-.8,2.9.16l16.48,18.36c.69.77.46,1.66-.5,2.52l-18.93,17c-.76.69-1.68.82-2.37.05l-16.65-18.55c-.86-.96-.63-1.85.14-2.54Z"/>
      <path class="cls-1" d="m581.46,2214.57c26.17-27.95,62.18-33.32,90.32-6.97,18.57,17.39,23.71,35.22,14.44,57.53l-23-8.15c5.45-11.09,6.86-23.5-4.77-34.39-15.57-14.58-36.23-12.44-56.96,9.69-20.9,22.33-24.04,42.97-7.34,58.61,10.69,10.01,22.93,11.61,34.37,5.78l7.96,20.83c-17.03,7.29-37.46,5.42-56.59-12.5-27.58-25.82-26.18-60.78,1.57-90.42Z"/>
      <path class="cls-1" d="m762.52,2211.33l19.85,14.65-61.66,83.54-17.37,21.36,85.86-24.14,25.23,18.62-64.34,15.76-8.83,88.99-23.16-17.09,8.36-70.18-37.51,8.41-4.93,7.54-13.89,18.82-19.64-14.5,112.03-151.77Z"/>
      <path class="cls-1" d="m870.38,2358.53l19.55,10.3,14.86-28.19,25.15,1.34-15.34,29.1-5.34,7.93,29.56,15.58-9.71,18.42-29.56-15.58-3.64,9.12-27.08,51.38c-7.67,14.55-6.27,19.06,6.01,25.54,5.91,3.12,11.97,4.85,18.61,6.03l-8.99,17.05c-8.03-.75-18.43-3.61-27.07-8.17-20.69-10.9-24.67-23.75-11.73-48.3l33.43-63.43-18.42-9.71,9.71-18.42Z"/>
      <path class="cls-1" d="m932.02,2463.03c14.06-35.34,46.52-53.69,83.54-38.97,36.54,14.53,46.91,46.87,32.19,83.88-14.44,36.3-47.52,54.12-83.34,39.87-37.25-14.82-47.39-47.06-32.38-84.79Zm90.94,35.61c10.45-26.27,6.16-48.17-15.1-56.62-21.73-8.64-40.46,4.38-50.81,30.41-10.54,26.51-6.2,48.98,15.05,57.43,21.25,8.45,40.22-4.47,50.86-31.22Z"/>
      <path class="cls-1" d="m1152.59,2472.06l23.83,5.33-3.76,16.8-11.45,38.26,1.76.39c8.7-25.97,27.95-54.32,56.54-47.93l3.76.84-6.67,29.85c-2.2-.76-5.96-1.6-8.97-2.27-23.83-5.33-38.87,11.32-46.86,38.77l-11.22,50.16-24.83-5.55,27.88-124.65Z"/>
      <path class="cls-1" d="m1247.66,2491.22l25.17,3.71-18.64,126.36-25.17-3.71,18.64-126.36Zm1.96-23.87l3.71-25.17c.19-1.27,1.06-1.92,2.33-1.73l24.41,3.6c1.02.15,1.41.99,1.23,2.26l-3.71,25.17c-.15,1.02-.77,1.7-1.79,1.55l-24.66-3.64c-1.27-.19-1.67-1.02-1.52-2.04Z"/>
      <path class="cls-1" d="m1300.36,2563.06c2.17-43.38,24.86-64.89,55.4-63.37,22.84,1.14,36.01,15.69,40.81,32.92l1.28.06-.32-24.46,3.19-63.91,24.64,1.23-9.41,188.41-23.87-1.19,1.81-31.05,1.51-9.7c-4.26,23.46-22.66,41.58-47.56,40.34-31.32-1.56-49.53-28.46-47.49-69.28Zm94.58,7.55l.35-6.93c1.13-22.59-8.4-43.14-33.04-44.37-21.05-1.05-33.74,16.07-35.12,43.79-1.47,29.52,8.87,49.08,29.66,50.12,21.82,1.09,37.06-20.79,38.15-42.61Z"/>
      <path class="cls-1" d="m1456.97,2569.71c-3.13-41.52,18.02-68.63,54.67-71.39,39.21-2.96,57.13,22.75,59.58,58.65l.46,9.5-88.93,6.71c3.98,28.82,19.02,40.32,39.52,38.77,14.86-1.12,25.6-9.15,30.25-19.29l18.08,10.75c-8.69,14.57-23.52,26.52-48.37,28.39-38.7,2.92-62.37-20.55-65.25-62.09Zm25.29-13.25l62.27-4.7-.08-1.03c-1.62-21.53-10.61-34.77-32.14-33.14-17.43,1.31-30.24,12.59-30.06,38.87Z"/>
      <path class="cls-1" d="m1636.64,2485.56l21.53-4.98-7.18-31.05,19.91-15.42,7.41,32.05,1.14,9.5,32.55-7.53,4.69,20.28-32.55,7.53,3.2,9.28,13.09,56.59c3.71,16.03,7.71,18.53,21.24,15.4,6.51-1.51,12.23-4.15,18.03-7.6l4.34,18.78c-6.57,4.68-16.31,9.31-25.83,11.51-22.79,5.27-34.19-1.85-40.45-28.89l-16.16-69.86-20.28,4.69-4.69-20.28Z"/>
      <path class="cls-1" d="m1768.62,2467.62c.93,2.67,4.97,18.14,4.97,18.14l1.46-.51c-1.36-21.84,8.59-42.47,30.67-50.17,23.54-8.21,41.48,1.86,51.64,30.97l27.78,79.59-24.51,8.55-25.66-73.52c-7.37-21.11-18.33-26-32.4-21.08-17.23,6.01-26.51,27.76-17.68,54.62l20.66,59.21-23.29,8.13-62.16-178.1,23.29-8.13,25.24,72.31Z"/>
      <path class="cls-1" d="m1898.54,2470.78c-18.62-37.24-9.32-70.34,23.55-86.78,35.17-17.59,61.49-.58,77.35,31.71l4.02,8.62-79.76,39.89c14.6,25.17,32.88,30.11,51.26,20.91,13.33-6.67,20.23-18.16,20.69-29.31l20.8,3.1c-2.53,16.78-11.72,33.45-34.02,44.6-34.71,17.36-65.51,4.6-83.91-32.75Zm18.39-21.84l55.86-27.94-.46-.92c-9.66-19.31-22.99-28.16-42.3-18.5-15.63,7.82-23.21,23.1-13.1,47.35Z"/>
      <path class="cls-1" d="m2032.72,2328.56l21.33-16.53,56.14,45.59,25.97,23.44.81-.63-14.55-32.62-26.73-68.05,20.92-16.21,57.81,43.97,27.91,22.59.81-.63-16.13-31.72-29.16-66.16,20.31-15.74,48.18,124.26-21.13,16.37-63.26-47.22-22.46-19.33-.81.63,12.91,26.73,28.72,73.98-20.92,16.21-106.68-78.92Z"/>
      <path class="cls-1" d="m2313.81,2216.82c9.03,16.56,6.31,37.14-7.96,51.58-17.3,17.95-37.12,17.4-51.92,3.13-17.03-16.77-11.76-36.68,3.09-59.49,13.6-21.51,18.52-30.69,15.37-34.45l-1.48-1.43c-11.29-10.88-22.74-10.85-35.22,2.1-10.88,11.29-12.79,26.22-8.77,37.24l-21.14,7.11c-6.52-18.78-.04-41.8,17.44-59.93,22.48-23.31,44.81-24.27,66.83-3.04l30.53,29.43c19.24,18.55,29.52,24.18,35.34,24.07l-18.02,18.69c-4.55-.1-12.63-4.68-24.08-15.01Zm-13.68-12.47l-18.5-17.84c1.18,4.7-2.12,13.31-7.58,22.68-11.28,19.11-13.95,32.24-3.96,41.88,9.07,8.74,19.93,6.72,27.43-1.05,12.31-12.77,13.59-31.87,2.62-45.67Z"/>
      <path class="cls-1" d="m2272.51,2114.97l17.15-22.47,75.64,26.7,27.25,11.74.78-1.02-18.36-23.39-45.86-65.72,17.15-22.47,71.9,116.31-14.81,19.41-130.84-39.09Z"/>
      <path class="cls-1" d="m2407.61,2040.82c-35.81-21.24-45.89-54.12-27.14-85.72,20.06-33.82,51.4-33.76,82.21-15.18l8.05,5.07-45.5,76.7c25.9,13.27,43.94,7.54,54.43-10.15,7.6-12.82,7.19-26.22,1.54-35.84l19.17-8.65c6.95,15.48,8.24,34.47-4.48,55.91-19.8,33.38-52.61,39.32-88.28,17.85Zm3.65-28.31l31.86-53.71-.88-.52c-18.57-11.01-34.57-11.24-45.58,7.33-8.92,15.03-7.02,31.99,14.6,46.91Z"/>
    </g>
  </g>
</svg>